<svg width="468" height="400" viewBox="0 0 468 400" fill="none" xmlns="http://www.w3.org/2000/svg">
<path opacity="0.1" d="M422.243 275.393C419.474 282.872 415.84 290.041 410.755 295.54C404.559 302.24 396.863 305.895 388.624 307.642C386.195 308.15 383.743 308.505 381.279 308.707C374.767 309.269 368.1 308.896 361.706 308.117C346.043 306.201 330.595 302.498 315.604 297.065C313.141 296.175 310.692 295.237 308.258 294.253C304.586 292.775 300.946 291.192 297.34 289.504C282.649 282.625 267.462 273.854 251.834 276.574C244.26 277.896 237.143 281.899 229.552 283.09C224.223 283.871 218.809 283.436 213.634 281.812C211.129 281.061 208.674 280.111 206.289 278.97C200.914 276.359 195.799 273.122 191.028 269.313C179.578 260.348 169.304 249.233 157.249 241.469C143.958 232.905 129.246 228.834 114.257 225.799C111.818 225.305 109.369 224.834 106.912 224.386C99.9774 223.103 93.0254 221.917 86.1727 220.513C79.5706 219.148 72.8519 217.478 67.1053 213.373C63.0049 210.444 59.557 206.387 56.3942 202.113C50.5599 194.192 45.5554 185.548 41.4791 176.35C41.263 175.866 41.0513 175.382 40.8439 174.898C34.4968 160.308 30.2279 144.401 27.6095 127.942C27.5317 127.458 27.4583 126.974 27.3848 126.49C24.922 110.356 24.0233 93.6743 24.2955 77.1139L24.3214 75.6617C24.4899 67.4856 24.9436 59.3433 25.6177 51.3173C26.1016 45.6729 26.7497 39.8156 29.3594 35.0716C31.9691 30.3276 36.2164 27.2779 40.468 24.7413C59.1768 13.5736 77.1121 10.4658 97.2381 15.8778C100.47 16.7443 103.689 17.6786 106.908 18.6468C109.358 19.3826 111.808 20.1426 114.253 20.9074C131.164 26.179 148.015 31.7992 165.506 33.479C167.194 33.6435 168.883 33.7694 170.574 33.8565C173.918 34.0308 177.262 34.0695 180.607 33.9727C189.221 33.7018 197.806 32.7116 206.289 31.0102C208.743 30.5358 211.192 30.0097 213.634 29.4321C224.177 26.9681 234.624 23.6812 244.903 20.0457C247.003 19.3035 249.1 18.5483 251.194 17.7803C255.913 16.0521 260.631 14.29 265.358 12.5764C279.469 7.45483 293.667 2.77378 308.258 0.885864C309.506 0.727731 310.756 0.587349 312.009 0.464715C313.206 0.348536 314.407 0.256561 315.604 0.18879C338.266 -1.16663 361.187 4.95698 381.279 17.4898C383.77 19.0453 386.219 20.6976 388.624 22.4468C391.957 24.8769 395.187 27.4909 398.315 30.2889C404.727 36.0252 410.729 42.5555 415.3 50.4024C419.755 58.046 422.645 66.6287 424.309 75.652C424.4 76.1361 424.486 76.6201 424.564 77.1042C427.005 91.6702 426.244 107.291 423.505 121.886C423.216 123.416 422.909 124.951 422.589 126.48C422.49 126.964 422.386 127.449 422.282 127.933C419.327 141.734 415.551 155.496 416.536 169.607C416.661 171.384 416.86 173.146 417.119 174.888C417.193 175.372 417.266 175.857 417.348 176.341C419.275 187.852 423.656 198.773 426.283 210.173C431.215 231.836 429.798 254.701 422.243 275.393Z" fill="#1AA29C"/>
<path opacity="0.1" d="M388.624 77.1038H424.564C424.486 76.6197 424.399 76.1356 424.309 75.6516H388.624V22.4463C386.222 20.6972 383.773 19.0449 381.279 17.4894V75.6516H315.603V0.188354C314.407 0.256126 313.205 0.348101 312.009 0.46428C310.812 0.580459 309.507 0.725682 308.258 0.885429V75.6516H214.498L214.274 75.3756L265.358 12.576C260.631 14.2896 255.913 16.0517 251.194 17.7798L213.634 63.9756V29.4316C211.189 30.0061 208.74 30.5321 206.289 31.0097V65.5488L180.607 33.9626C177.262 34.053 173.918 34.0142 170.574 33.8464L204.345 75.366L204.12 75.6419H114.249V20.8925C111.803 20.1276 109.353 19.3676 106.904 18.6318V75.6516H24.3128L24.2869 77.1038H106.912V126.48H27.3762C27.4496 126.964 27.5231 127.448 27.6009 127.932H106.912V174.888H40.8353C41.0427 175.372 41.2544 175.856 41.4704 176.34H106.912V224.39C109.366 224.839 111.815 225.31 114.257 225.803V176.34H206.289V278.965C208.674 280.106 211.129 281.056 213.634 281.807V176.34H308.258V294.248C310.695 295.235 313.144 296.173 315.603 297.06V176.34H381.279V308.702C383.743 308.5 386.195 308.144 388.624 307.637V176.34H417.348C417.266 175.856 417.193 175.372 417.119 174.888H388.602V127.932H422.261C422.364 127.448 422.468 126.964 422.568 126.48H388.624V77.1038ZM381.279 77.1038V126.48H315.603V77.1038H381.279ZM308.258 126.48H213.634V77.1038H308.258V126.48ZM114.257 77.1038H204.993L206.289 78.4253V126.48H114.257V77.1038ZM114.257 174.888V127.932H206.289V174.888H114.257ZM213.634 174.888V127.932H308.258V174.888H213.634ZM381.279 174.888H315.603V127.932H381.279V174.888Z" fill="#1AA29C"/>
<path opacity="0.1" d="M349.703 43.1025H349.132C349.333 42.9722 349.502 42.7881 349.623 42.5667C349.745 42.3453 349.815 42.0936 349.828 41.8342C349.828 40.8321 348.735 40.014 347.4 40.014H330.35C329.015 40.014 327.918 40.8321 327.918 41.8342C327.918 42.8362 329.015 43.6543 330.35 43.6543H330.921C330.72 43.7843 330.551 43.9683 330.429 44.1898C330.308 44.4112 330.238 44.6631 330.225 44.9226C330.225 45.7746 331.02 46.491 332.083 46.6847H327.2C325.861 46.6847 324.768 47.5027 324.768 48.5048C324.768 49.5068 325.861 50.3249 327.2 50.3249H344.228C345.568 50.3249 346.661 49.502 346.661 48.5048C346.661 47.6528 345.862 46.9315 344.799 46.7379H349.703C351.038 46.7379 352.131 45.9198 352.131 44.9226C352.131 43.9254 351.038 43.1025 349.703 43.1025Z" fill="#1AA29C"/>
<path opacity="0.1" d="M165.138 60.4132H164.568C164.768 60.2819 164.936 60.0975 165.057 59.8764C165.178 59.6552 165.249 59.404 165.264 59.1449C165.264 58.1477 164.17 57.3296 162.831 57.3296H145.803C144.464 57.3296 143.37 58.1477 143.37 59.1449C143.37 60.1469 144.464 60.965 145.803 60.965H146.369C146.17 61.0966 146.002 61.2811 145.882 61.5023C145.761 61.7235 145.691 61.9746 145.678 62.2333C145.678 63.0853 146.473 63.8066 147.536 64.0002H142.632C141.297 64.0002 140.203 64.8183 140.203 65.8155C140.203 66.8127 141.297 67.6356 142.632 67.6356H159.681C161.016 67.6356 162.114 66.8176 162.114 65.8155C162.114 64.9635 161.314 64.2471 160.252 64.0535H165.156C166.491 64.0535 167.584 63.2354 167.584 62.2333C167.584 61.2313 166.473 60.4132 165.138 60.4132Z" fill="#1AA29C"/>
<path opacity="0.1" d="M375.826 134.506H375.255C375.455 134.375 375.623 134.191 375.745 133.97C375.866 133.748 375.937 133.497 375.951 133.238C375.951 132.236 374.858 131.418 373.519 131.418H356.491C355.151 131.418 354.058 132.236 354.058 133.238C354.058 134.24 355.151 135.058 356.491 135.058H357.057C356.857 135.19 356.69 135.374 356.569 135.596C356.449 135.817 356.379 136.068 356.365 136.327C356.365 137.179 357.16 137.895 358.223 138.089H353.319C351.984 138.089 350.891 138.907 350.891 139.909C350.891 140.911 351.984 141.729 353.319 141.729H370.351C371.687 141.729 372.784 140.911 372.784 139.909C372.784 139.057 371.985 138.335 370.922 138.142H375.826C377.161 138.142 378.254 137.324 378.254 136.327C378.254 135.329 377.161 134.506 375.826 134.506Z" fill="#1AA29C"/>
<path opacity="0.1" d="M227.089 375.172C327.923 375.172 409.666 365.061 409.666 352.589C409.666 340.117 327.923 330.007 227.089 330.007C126.255 330.007 44.5122 340.117 44.5122 352.589C44.5122 365.061 126.255 375.172 227.089 375.172Z" fill="#1AA29C"/>
<path d="M265.047 191.918V262.933C265.049 264.139 264.904 265.339 264.615 266.5C263.919 269.325 262.415 271.816 260.334 273.591C258.254 275.366 255.711 276.327 253.096 276.327H199.518C197.948 276.328 196.393 275.982 194.943 275.309C193.492 274.636 192.174 273.65 191.063 272.406C189.953 271.162 189.073 269.685 188.472 268.059C187.871 266.434 187.562 264.692 187.563 262.933V191.918C187.562 190.159 187.871 188.417 188.472 186.792C189.073 185.166 189.953 183.689 191.063 182.446C192.174 181.202 193.492 180.215 194.943 179.542C196.393 178.869 197.948 178.523 199.518 178.524H253.096C255.711 178.524 258.254 179.485 260.334 181.261C262.415 183.036 263.919 185.526 264.615 188.351C264.904 189.512 265.049 190.713 265.047 191.918Z" fill="#E9CCDB"/>
<path opacity="0.1" d="M188.427 191.918V262.933C188.428 264.14 188.282 265.342 187.995 266.505C187.708 265.342 187.562 264.14 187.563 262.933V191.918C187.562 190.711 187.708 189.509 187.995 188.346C188.282 189.509 188.428 190.711 188.427 191.918Z" fill="black"/>
<path d="M175.608 178.524H105.616C99.0132 178.524 93.6605 184.521 93.6605 191.918V262.913C93.6605 270.311 99.0132 276.308 105.616 276.308H175.608C182.21 276.308 187.563 270.311 187.563 262.913V191.918C187.563 184.521 182.21 178.524 175.608 178.524Z" fill="#E9CCDB"/>
<path opacity="0.1" d="M265.047 191.918V262.933C265.049 264.139 264.904 265.339 264.615 266.5C264.328 265.339 264.182 264.138 264.183 262.933V191.918C264.182 190.713 264.328 189.513 264.615 188.351C264.904 189.512 265.049 190.713 265.047 191.918Z" fill="black"/>
<path d="M346.998 178.524H277.002C270.399 178.524 265.047 184.521 265.047 191.918V262.913C265.047 270.311 270.399 276.308 277.002 276.308H346.998C353.601 276.308 358.953 270.311 358.953 262.913V191.918C358.953 184.521 353.601 178.524 346.998 178.524Z" fill="#E9CCDB"/>
<path opacity="0.1" d="M182.81 283.569H97.0307L96.5986 275.17C96.1233 265.74 107.003 257.913 120.592 257.913H178.973C183.532 257.913 187.049 260.691 186.465 263.828L182.81 283.569Z" fill="black"/>
<path d="M182.81 284.537H97.0307L96.5986 276.138C96.1233 266.709 107.003 258.881 120.592 258.881H178.973C183.532 258.881 187.049 261.66 186.465 264.796L182.81 284.537Z" fill="#CAA4BC"/>
<path opacity="0.1" d="M268.767 284.126H354.546L354.978 275.727C355.454 266.297 344.574 258.47 330.985 258.47H272.604C268.049 258.47 264.528 261.248 265.111 264.385L268.767 284.126Z" fill="black"/>
<path d="M268.767 285.094H354.546L354.978 276.695C355.454 267.265 344.574 259.438 330.985 259.438H272.604C268.049 259.438 264.528 262.216 265.111 265.353L268.767 285.094Z" fill="#CAA4BC"/>
<path opacity="0.1" d="M197.665 258.47H255.787C257.41 258.47 259.016 258.828 260.515 259.523C262.013 260.219 263.375 261.238 264.522 262.523C265.669 263.808 266.579 265.334 267.2 267.013C267.821 268.692 268.14 270.492 268.14 272.309V280.907H184.106V273.645C184.109 269.619 185.538 265.758 188.081 262.912C190.624 260.066 194.071 258.468 197.665 258.47Z" fill="black"/>
<path d="M197.665 259.438H255.787C257.41 259.438 259.016 259.796 260.515 260.491C262.013 261.187 263.375 262.206 264.522 263.491C265.669 264.776 266.579 266.302 267.2 267.981C267.821 269.66 268.14 271.46 268.14 273.278V281.875H184.106V274.614C184.109 270.587 185.538 266.726 188.081 263.88C190.624 261.034 194.071 259.436 197.665 259.438Z" fill="#CAA4BC"/>
<path d="M102.89 268.079H172.453C175.547 268.079 178.515 269.456 180.702 271.907C182.89 274.358 184.119 277.682 184.119 281.149V298.818H97.7177V273.873C97.7211 272.337 98.2671 270.866 99.2362 269.78C100.205 268.694 101.519 268.082 102.89 268.079Z" fill="#E9CCDB"/>
<path opacity="0.1" d="M192.748 268.079H258.855C261.949 268.079 264.916 269.456 267.104 271.907C269.292 274.358 270.521 277.682 270.521 281.149V298.818H181.734V280.423C181.734 277.15 182.895 274.011 184.96 271.696C187.025 269.381 189.827 268.08 192.748 268.079Z" fill="black"/>
<path opacity="0.1" d="M194.476 268.079H260.583C263.677 268.079 266.645 269.456 268.832 271.907C271.02 274.358 272.249 277.682 272.249 281.149V298.818H183.463V280.423C183.463 277.15 184.623 274.011 186.688 271.696C188.754 269.381 191.555 268.08 194.476 268.079Z" fill="black"/>
<path d="M193.612 268.079H259.719C262.813 268.079 265.78 269.456 267.968 271.907C270.156 274.358 271.385 277.682 271.385 281.149V298.818H182.598V280.423C182.598 277.15 183.759 274.011 185.824 271.696C187.889 269.381 190.691 268.08 193.612 268.079Z" fill="#E9CCDB"/>
<path opacity="0.1" d="M274.099 268.079H344.73C347.68 268.079 350.51 269.392 352.597 271.729C354.683 274.067 355.855 277.238 355.855 280.544V298.818H269.467V273.268C269.467 271.892 269.955 270.572 270.823 269.598C271.692 268.625 272.87 268.079 274.099 268.079Z" fill="black"/>
<path d="M274.963 268.079H345.594C348.544 268.079 351.374 269.392 353.461 271.729C355.547 274.067 356.72 277.238 356.72 280.544V298.818H270.331V273.268C270.331 272.586 270.451 271.912 270.683 271.282C270.916 270.652 271.257 270.08 271.687 269.598C272.118 269.117 272.628 268.734 273.19 268.474C273.752 268.213 274.354 268.079 274.963 268.079Z" fill="#E9CCDB"/>
<path d="M98.9879 339.722V352.914C98.9868 354.678 98.3605 356.371 97.2466 357.619C96.1327 358.867 94.6222 359.568 93.0469 359.57H88.9422C87.3669 359.568 85.8565 358.867 84.7426 357.619C83.6287 356.371 83.0024 354.678 83.0012 352.914V339.722H98.9879Z" fill="#9C7AA5"/>
<path d="M370.965 339.722V352.914C370.964 354.678 370.338 356.371 369.224 357.619C368.11 358.867 366.599 359.568 365.024 359.57H360.919C359.344 359.568 357.834 358.867 356.72 357.619C355.606 356.371 354.979 354.678 354.978 352.914V339.722H370.965Z" fill="#9C7AA5"/>
<path d="M103.348 253.145C103.348 249.796 102.499 246.517 100.899 243.689C99.2998 240.86 97.0161 238.599 94.3139 237.169C91.6118 235.738 88.6025 235.198 85.6367 235.61C82.6708 236.022 79.8705 237.369 77.5619 239.496C75.2533 241.622 73.5315 244.439 72.597 247.62C71.6626 250.8 71.5539 254.212 72.2838 257.459C73.0136 260.706 74.5519 263.654 76.7194 265.959C78.8869 268.264 81.5944 269.832 84.5265 270.48V341.901H102.241V259.665C102.974 257.589 103.35 255.377 103.348 253.145Z" fill="#E9CCDB"/>
<path d="M349.983 253.145C349.983 249.796 350.832 246.517 352.432 243.689C354.031 240.86 356.315 238.599 359.017 237.169C361.719 235.738 364.729 235.198 367.694 235.61C370.66 236.022 373.461 237.369 375.769 239.496C378.078 241.622 379.8 244.439 380.734 247.62C381.668 250.8 381.777 254.212 381.047 257.459C380.317 260.706 378.779 263.654 376.612 265.959C374.444 268.264 371.737 269.832 368.805 270.48V341.901H351.09V259.665C350.357 257.589 349.981 255.377 349.983 253.145Z" fill="#E9CCDB"/>
<path opacity="0.1" d="M103.348 253.145C103.348 249.796 102.499 246.517 100.899 243.689C99.2998 240.86 97.0161 238.599 94.3139 237.169C91.6118 235.738 88.6025 235.198 85.6367 235.61C82.6708 236.022 79.8705 237.369 77.5619 239.496C75.2533 241.622 73.5315 244.439 72.597 247.62C71.6626 250.8 71.5539 254.212 72.2838 257.459C73.0136 260.706 74.5519 263.654 76.7194 265.959C78.8869 268.264 81.5944 269.832 84.5265 270.48V341.901H102.241V259.665C102.974 257.589 103.35 255.377 103.348 253.145Z" fill="black"/>
<path opacity="0.1" d="M349.983 253.145C349.983 249.796 350.832 246.517 352.432 243.689C354.031 240.86 356.315 238.599 359.017 237.169C361.719 235.738 364.729 235.198 367.694 235.61C370.66 236.022 373.461 237.369 375.769 239.496C378.078 241.622 379.8 244.439 380.734 247.62C381.668 250.8 381.777 254.212 381.047 257.459C380.317 260.706 378.779 263.654 376.612 265.959C374.444 268.264 371.737 269.832 368.805 270.48V341.901H351.09V259.665C350.357 257.589 349.981 255.377 349.983 253.145Z" fill="black"/>
<path d="M360.608 329.557H93.6605V343.353H360.608V329.557Z" fill="#9C7AA5"/>
<path opacity="0.1" d="M358.953 298.818H96.6072V330.525H358.953V298.818Z" fill="black"/>
<path d="M358.953 297.849H96.6072V329.557H358.953V297.849Z" fill="#CAA4BC"/>
<path opacity="0.1" d="M370.961 339.722H355V344.321H370.961V339.722Z" fill="black"/>
<path d="M353.885 254.597C353.885 251.248 354.734 247.968 356.333 245.139C357.933 242.309 360.217 240.048 362.92 238.617C365.623 237.187 368.633 236.647 371.599 237.06C374.566 237.472 377.367 238.821 379.675 240.949C381.983 243.076 383.705 245.895 384.638 249.077C385.571 252.258 385.678 255.672 384.947 258.919C384.215 262.166 382.675 265.113 380.505 267.417C378.336 269.721 375.627 271.287 372.693 271.932V343.353H354.978V261.118C354.248 259.041 353.877 256.829 353.885 254.597Z" fill="#E9CCDB"/>
<path opacity="0.1" d="M98.7632 339.722H83.0012V344.321H98.7632V339.722Z" fill="black"/>
<path d="M99.878 254.597C99.8776 251.249 99.0284 247.971 97.4293 245.143C95.8302 242.315 93.547 240.055 90.8456 238.625C88.1441 237.194 85.1356 236.653 82.1704 237.064C79.2051 237.475 76.4051 238.822 74.0964 240.947C71.7877 243.072 70.0653 245.888 69.1297 249.067C68.1942 252.246 68.0839 255.658 68.8119 258.904C69.5399 262.151 71.0761 265.099 73.2416 267.406C75.4072 269.712 78.113 271.282 81.0439 271.932V343.353H98.7589V261.118C99.4982 259.043 99.878 256.83 99.878 254.597Z" fill="#E9CCDB"/>
<path opacity="0.1" d="M351.176 297.849H102.237V298.735H351.176V297.849Z" fill="black"/>
<path d="M83.0013 262.028C86.9386 262.028 90.1305 258.452 90.1305 254.04C90.1305 249.629 86.9386 246.053 83.0013 246.053C79.0639 246.053 75.8721 249.629 75.8721 254.04C75.8721 258.452 79.0639 262.028 83.0013 262.028Z" fill="#CAA4BC"/>
<path d="M370.961 262.028C374.898 262.028 378.09 258.452 378.09 254.04C378.09 249.629 374.898 246.053 370.961 246.053C367.023 246.053 363.832 249.629 363.832 254.04C363.832 258.452 367.023 262.028 370.961 262.028Z" fill="#CAA4BC"/>
<path opacity="0.1" d="M158.407 240.539C151.614 238.637 137.274 218.577 137.274 218.577C131.882 214.355 120.885 188.786 120.885 188.786C120.885 188.786 116.712 186.584 113.035 196.488C109.358 206.392 87.9745 214.312 81.5711 215.42C77.9633 216.045 78.3133 217.841 79.3071 219.293C79.977 220.225 80.8658 220.929 81.8736 221.326C84.5956 222.483 93.0427 233.844 93.0427 233.844C100.919 239.808 109.656 267.357 112.559 274.556C114.171 278.559 115.964 276.642 117.243 274.149C119.713 269.336 123.095 265.188 127.151 261.999C138.142 253.338 149.925 249.746 150.729 249.732C151.744 249.703 165.199 242.442 158.407 240.539Z" fill="black"/>
<path d="M68.112 216.945C67.0023 216.473 66.0252 215.678 65.2819 214.641C64.1456 213.01 63.6616 210.986 67.4423 210.284C74.1135 209.055 96.1579 200.211 99.4157 189.053C102.674 177.895 107.193 180.392 107.193 180.392C107.193 180.392 120.363 209.253 126.308 214.041C126.308 214.041 142.666 236.71 149.938 238.884C157.21 241.057 143.491 249.19 142.424 249.209C141.56 249.209 129.389 253.232 118.349 262.952C114.223 266.609 110.909 271.286 108.666 276.618C107.474 279.425 105.702 281.58 103.754 277.063C100.25 268.935 89.3268 237.853 80.6594 231.076C80.6594 231.076 71.0501 218.233 68.112 216.945Z" fill="#1AA29C"/>
<path opacity="0.1" d="M68.112 216.945C67.0023 216.473 66.0252 215.678 65.2819 214.641C64.1456 213.01 63.6616 210.986 67.4423 210.284C74.1135 209.055 96.1579 200.211 99.4157 189.053C102.674 177.895 107.193 180.392 107.193 180.392C107.193 180.392 120.363 209.253 126.308 214.041C126.308 214.041 142.666 236.71 149.938 238.884C157.21 241.057 143.491 249.19 142.424 249.209C141.56 249.209 129.389 253.232 118.349 262.952C114.223 266.609 110.909 271.286 108.666 276.618C107.474 279.425 105.702 281.58 103.754 277.063C100.25 268.935 89.3268 237.853 80.6594 231.076C80.6594 231.076 71.0501 218.233 68.112 216.945Z" fill="black"/>
<path d="M72.8 216.345C71.7701 215.942 70.8585 215.23 70.1643 214.288C69.1144 212.835 68.6866 210.977 72.2426 210.279C78.5465 209.04 99.4632 200.598 102.678 190.331C105.892 180.063 110.144 182.285 110.144 182.285C110.144 182.285 122.173 208.425 127.712 212.714C127.712 212.714 142.835 233.152 149.657 235.016C156.48 236.88 143.44 244.538 142.433 244.581C141.634 244.61 130.089 248.454 119.533 257.55C115.621 260.926 112.441 265.248 110.23 270.194C109.068 272.779 107.366 274.778 105.59 270.678C102.397 263.306 92.5198 235.069 84.44 229.047C84.44 229.047 75.5523 217.492 72.8 216.345Z" fill="#1AA29C"/>
<path opacity="0.1" d="M97.0306 225.586C97.0306 225.586 94.7665 227.973 105.594 223.398C116.422 218.823 97.0306 225.586 97.0306 225.586Z" fill="black"/>
<path opacity="0.1" d="M105.918 237.228C105.918 237.228 107.569 237.494 113.778 234.653C119.987 231.811 105.918 237.228 105.918 237.228Z" fill="black"/>
<path opacity="0.1" d="M105.374 258.605C105.374 258.605 106.917 258.605 113.112 255.73C119.308 252.854 105.374 258.605 105.374 258.605Z" fill="black"/>
<path opacity="0.1" d="M358.089 210.749V219.985C356.309 224.11 354.568 229.376 354.568 229.376C349.383 236.938 350.204 262.129 349.863 268.931C349.673 272.706 347.465 271.806 345.542 270.257C341.742 267.223 337.428 265.093 332.865 263.998C320.335 260.924 308.669 262.202 307.926 262.473C307.01 262.812 292.699 261.732 298.178 257.806C303.657 253.881 310.207 232.731 310.207 232.731C313.711 227.445 315.539 203.047 315.539 203.047C315.539 203.047 318.563 199.809 324.98 206.436C331.067 212.792 350.96 212.017 358.089 210.749Z" fill="black"/>
<path d="M362.803 213.944C363.564 213.296 364.14 212.415 364.462 211.407C364.894 209.897 364.653 208.333 361.226 209.103C355.156 210.468 333.535 211.664 327.14 205.013C320.745 198.361 317.699 201.6 317.699 201.6C317.699 201.6 315.871 225.993 312.367 231.284C312.367 231.284 305.821 252.433 300.338 256.359C294.855 260.285 309.17 261.364 310.086 261.021C310.812 260.75 322.478 259.476 335.025 262.55C339.587 263.646 343.901 265.774 347.702 268.805C349.625 270.354 351.833 271.259 352.023 267.478C352.364 260.701 351.552 235.49 356.728 227.929C356.728 227.929 360.729 215.832 362.803 213.944Z" fill="#1AA29C"/>
<path opacity="0.1" d="M362.803 213.944C363.564 213.296 364.14 212.415 364.462 211.407C364.894 209.897 364.653 208.333 361.226 209.103C355.156 210.468 333.535 211.664 327.14 205.013C320.745 198.361 317.699 201.6 317.699 201.6C317.699 201.6 315.871 225.993 312.367 231.284C312.367 231.284 305.821 252.433 300.338 256.359C294.855 260.285 309.17 261.364 310.086 261.021C310.812 260.75 322.478 259.476 335.025 262.55C339.587 263.646 343.901 265.774 347.702 268.805C349.625 270.354 351.833 271.259 352.023 267.478C352.364 260.701 351.552 235.49 356.728 227.929C356.728 227.929 360.729 215.832 362.803 213.944Z" fill="black"/>
<path d="M361.239 215.033C361.962 214.415 362.508 213.574 362.812 212.613C363.244 211.16 362.993 209.708 359.744 210.43C353.976 211.722 333.448 212.85 327.378 206.557C321.307 200.264 318.412 203.318 318.412 203.318C318.412 203.318 316.684 226.477 313.352 231.497C313.352 231.497 307.139 251.581 301.933 255.309C296.726 259.036 310.319 260.057 311.183 259.733C311.875 259.476 322.953 258.281 334.865 261.185C339.197 262.222 343.292 264.244 346.899 267.125C348.726 268.577 350.822 269.453 351.003 265.866C351.327 259.409 350.571 235.495 355.471 228.311C355.471 228.307 359.269 216.824 361.239 215.033Z" fill="#1AA29C"/>
<path opacity="0.1" d="M346.026 228.384C346.026 228.384 344.514 229.352 337.276 232.136C330.039 234.919 344.838 231.046 346.026 228.384Z" fill="black"/>
<path opacity="0.1" d="M345.27 236.928C345.27 236.928 340.733 241.091 338.465 241.454C336.196 241.817 343.973 240.994 345.27 236.928Z" fill="black"/>
<path opacity="0.1" d="M348.877 256.156C348.877 256.156 344.341 260.319 342.072 260.682C339.804 261.045 347.581 260.232 348.877 256.156Z" fill="black"/>
<path d="M280.074 259.651C279.433 259.619 278.796 259.517 278.173 259.346C278.13 259.118 277.784 258.963 277.054 258.929H276.907C274.66 257.971 272.645 256.435 271.022 254.447C268.94 251.881 263.046 248.672 263.046 248.672C263.046 248.672 258.881 244.736 256.133 244.417C253.385 244.097 245.789 235.51 239.325 227.561C232.861 219.612 222.872 210.947 222.872 210.947L218.633 205.652C218.633 205.652 213.69 201.706 212.545 199.518C211.919 198.332 209.953 197.722 207.939 197.509C205.779 196.541 202.215 196.541 200.551 196.948C199.536 197.204 196.727 200.182 193.962 203.352L196.235 170.677C196.266 170.224 196.159 169.772 195.931 169.396C195.704 169.019 195.369 168.741 194.982 168.605L187.334 172.783C187.059 172.932 186.824 173.16 186.653 173.444C186.482 173.728 186.382 174.058 186.362 174.399L184.309 209.476L175.279 216.873C175.074 215.633 174.599 214.469 173.896 213.484C168.833 206.087 160.96 220.121 158.026 225.993C157.888 225.993 157.754 226.041 157.629 226.075C157.574 226.248 157.484 226.404 157.365 226.53C155.133 225.311 153.014 223.847 151.04 222.159C150.901 221.988 150.786 221.796 150.698 221.588C150.266 220.382 148.568 218.31 147.588 217.163C144.606 213.402 140.16 208.362 139.525 208.043C139.188 207.878 137.594 206.508 135.615 204.771C135.312 204.036 134.975 203.32 134.604 202.626C133.195 200.012 130.793 199.238 129.112 199.029C127.557 197.674 126.368 196.662 126.053 196.488C124.977 195.888 122.497 191.55 121.3 188.781C120.103 186.013 111.406 185.654 111.406 185.654C111.339 181.85 112.127 178.088 113.696 174.714C113.786 174.52 113.873 174.332 113.964 174.148C116.011 173.48 117.917 172.353 119.564 170.835C121.211 169.317 122.565 167.44 123.545 165.318C124.525 163.195 125.11 160.872 125.264 158.489C125.418 156.106 125.138 153.712 124.441 151.454C125.556 151.014 126.917 151.207 128.088 150.747C129.661 150.133 131.087 148.709 131.329 146.875C131.433 145.648 131.179 144.416 130.603 143.365C130.075 142.318 129.406 141.369 128.619 140.553C126.485 138.045 123.413 136.501 120.41 135.344C116.604 133.892 112.607 132.773 108.584 133.02C104.562 133.267 100.487 135 97.8948 138.437C97.4351 139.147 96.8931 139.785 96.2831 140.335C95.3585 141.041 94.1746 141.158 93.0555 141.109C89.3656 140.959 85.5116 139.328 82.1068 140.925C78.0151 142.862 76.5849 148.448 76.0578 153.371C75.5091 158.439 75.3751 163.595 74.1783 168.518C72.9814 173.441 70.5143 178.253 66.5047 180.697C65.3337 181.409 64.0548 181.908 62.953 182.75C61.8512 183.592 60.9136 184.899 60.9093 186.39C60.9093 188.423 62.5382 189.919 63.3894 191.715C63.8215 192.63 64.0721 193.676 64.4998 194.576C64.543 194.668 64.5862 194.755 64.6338 194.842L64.6597 194.891C64.6986 194.958 64.7375 195.026 64.7807 195.094C64.7926 195.118 64.8071 195.141 64.8239 195.162L64.9449 195.346C64.9618 195.367 64.9776 195.39 64.9924 195.413C65.0529 195.491 65.1134 195.568 65.1782 195.641C65.243 195.713 65.3337 195.805 65.4158 195.878C65.4979 195.951 65.5411 196.043 65.6103 196.12C67.4639 198.216 70.7563 197.03 73.1327 198.303C73.5858 198.557 74.0035 198.883 74.3727 199.271C75.1677 200.24 75.8072 201.435 76.5331 202.51L76.5763 202.568L76.801 202.888L76.9176 203.038C76.9695 203.11 77.0256 203.183 77.0818 203.251C77.138 203.318 77.2806 203.493 77.3799 203.604L77.5744 203.802C77.6521 203.899 77.7299 203.996 77.812 204.088C79.765 206.266 82.6512 207.026 85.4079 207.239C86.9158 207.351 88.4756 207.322 89.8712 206.663C90.5078 206.359 91.0925 205.933 91.5995 205.405C92.4114 206.117 93.2791 206.746 94.1919 207.283C96.4646 208.948 98.9836 210.502 101.36 212.269C103.836 214.907 106.834 218.649 106.873 221.375C106.929 224.991 111.367 232.092 113.354 235.084C113.454 235.679 113.497 236.018 113.497 236.018L122.618 251.068C122.618 251.068 123.301 253.416 126.861 253.546C126.204 258.077 126.429 266.045 129.587 266.878C133.251 267.846 139.214 267.038 140.078 268.243C140.942 269.449 155.162 267.599 155.162 267.599C155.162 267.599 163.064 265.595 168.31 267.362C171.573 268.38 175.051 268.096 178.148 266.559C178.148 266.559 183.817 265.958 184.551 263.475C184.694 263.245 184.79 262.982 184.832 262.705C184.867 262.435 184.93 262.17 185.022 261.916C185.593 260.875 186.478 260.57 186.146 260.338C186.578 259.922 186.669 259.825 185.333 259.573C184.45 259.426 183.549 259.46 182.676 259.675C182.996 259.314 183.311 258.931 183.622 258.528C183.821 258.54 184.02 258.54 184.219 258.528C186.202 258.654 186.064 257.69 187.917 257.172C190.078 256.572 192.238 256.33 195.029 255.967C197.82 255.604 200.741 253.803 201.942 252.094C203.143 250.385 208.19 251.368 209.59 248.478C210.791 246.009 206.544 243.889 204.28 244.083C203.736 243.999 203.182 244.106 202.694 244.388C201.363 245.356 196.589 245.801 194.951 245.917C194.593 245.772 193.15 245.215 191.452 244.731C192.921 242.035 194.977 238.361 196.84 235.398C200.218 230.02 202.227 228.094 202.227 228.094C202.923 226.836 203.799 225.716 204.82 224.778C207.348 231.952 222.263 243.962 229.448 245.351C237.351 246.876 245.111 254.098 245.111 254.098C245.111 254.098 244.394 257.487 244.394 258.939C244.394 259.588 245.828 259.907 247.63 260.067C248.84 261.084 254.711 260.972 256.963 260.551C259.477 260.067 266.589 262.076 272.409 262.487C278.229 262.899 283.591 259.81 280.074 259.651Z" fill="url(#paint0_linear)"/>
<path d="M136.526 204.795L135.986 212.482L139.318 220.576L144.027 225.223L149.152 228.612L153.904 232.32L158.657 227.537C158.657 227.537 151.697 222.531 151.074 220.832C150.452 219.133 147.324 215.691 147.324 215.691L142.908 210.909L139.322 207.244L136.526 204.795Z" fill="#FD6F8D"/>
<path opacity="0.1" d="M136.526 204.795L135.986 212.482L139.318 220.576L144.027 225.223L149.152 228.612L153.904 232.32L158.657 227.537C158.657 227.537 151.697 222.531 151.074 220.832C150.452 219.133 147.324 215.691 147.324 215.691L142.908 210.909L139.322 207.244L136.526 204.795Z" fill="black"/>
<path d="M114.957 174.951C113.229 178.746 111.769 184.323 113.436 190.611C116.521 202.229 93.9067 185.974 93.9067 185.974C93.9067 185.974 98.7805 177.822 100.206 170.783C100.669 168.503 100.768 166.335 100.206 164.602C97.9639 157.529 118.021 169.786 118.021 169.786C116.806 171.353 115.776 173.089 114.957 174.951Z" fill="#FFBEC5"/>
<path opacity="0.1" d="M112.084 185.659C112.084 185.659 120.592 186.013 121.749 188.723C122.907 191.434 125.323 195.68 126.377 196.27C127.431 196.861 138.579 207.114 139.525 207.583C140.471 208.053 150.046 219.249 150.046 220.431C150.046 221.612 159.936 228.447 166.249 229.507C172.561 230.567 182.235 243.299 185.078 242.824C187.921 242.35 193.72 244.712 193.72 244.712C193.72 244.712 200.244 244.359 201.821 243.178C203.398 241.996 209.287 244.359 207.922 247.186C206.557 250.013 201.61 249.074 200.452 250.724C199.294 252.375 196.455 254.142 193.72 254.495C190.985 254.849 188.881 255.081 186.776 255.672C184.672 256.262 185.199 257.438 182.024 256.853C178.848 256.267 166.56 231.744 166.56 231.744L152.885 224.792C152.885 224.792 147.73 220.077 147.307 218.543C146.883 217.008 136.997 206.523 136.997 206.523L124.057 195.912L112.084 185.659Z" fill="black"/>
<path d="M112.715 185.659C112.715 185.659 121.222 186.013 122.38 188.723C123.538 191.434 125.958 195.68 127.008 196.27C128.058 196.861 139.21 207.114 140.16 207.583C141.111 208.053 150.677 219.249 150.677 220.431C150.677 221.612 160.567 228.447 166.88 229.507C173.192 230.567 182.866 243.299 185.709 242.824C188.552 242.35 194.351 244.712 194.351 244.712C194.351 244.712 200.875 244.359 202.452 243.178C204.029 241.996 209.923 244.359 208.553 247.186C207.183 250.013 202.24 249.074 201.082 250.724C199.924 252.375 197.086 254.142 194.351 254.495C191.616 254.849 189.494 255.081 187.394 255.672C185.294 256.262 185.817 257.438 182.642 256.853C179.466 256.267 167.178 231.744 167.178 231.744L153.503 224.792C153.503 224.792 148.348 220.077 147.924 218.543C147.501 217.008 137.645 206.523 137.645 206.523L124.683 195.912L112.715 185.659Z" fill="#FD6F8D"/>
<path d="M157.024 238.308C157.024 238.308 169.792 225.654 170.418 224.715C170.729 224.231 174.769 220.818 178.77 217.453C183.742 213.298 188.403 208.693 192.705 203.686C195.586 200.336 198.671 196.991 199.734 196.725C201.895 196.173 207.378 196.411 208.501 198.531C209.624 200.651 214.464 204.504 214.464 204.504L218.603 209.684C218.603 209.684 228.355 218.17 234.667 225.949C240.98 233.728 248.412 242.137 251.086 242.451C253.761 242.766 257.818 246.614 257.818 246.614C257.818 246.614 263.569 249.761 265.595 252.273C267.622 254.786 270.996 257.226 274.431 257.38C277.866 257.535 272.608 260.527 266.926 260.13C261.244 259.733 254.305 257.773 251.847 258.247C249.388 258.721 242.523 258.794 242.523 257.38C242.523 255.967 243.222 252.665 243.222 252.665C243.222 252.665 235.648 245.612 227.949 244.121C220.249 242.63 203.385 228.563 203.524 222.043C203.524 222.043 201.143 221.805 198.404 226.52C198.404 226.52 196.442 228.408 193.145 233.67C189.849 238.932 185.921 246.474 185.921 246.474C185.921 246.474 179.82 260.295 174.912 260.183C170.003 260.072 164.741 259.438 164.741 259.438L158.216 254.253L157.784 247.96L157.024 238.308Z" fill="#FFBEC5"/>
<path opacity="0.05" d="M157.024 238.308C157.024 238.308 169.792 225.654 170.418 224.715C170.729 224.231 174.769 220.818 178.77 217.453C183.742 213.298 188.403 208.693 192.705 203.686C195.586 200.336 198.671 196.991 199.734 196.725C201.895 196.173 207.378 196.411 208.501 198.531C209.624 200.651 214.464 204.504 214.464 204.504L218.603 209.684C218.603 209.684 228.355 218.17 234.667 225.949C240.98 233.728 248.412 242.137 251.086 242.451C253.761 242.766 257.818 246.614 257.818 246.614C257.818 246.614 263.569 249.761 265.595 252.273C267.622 254.786 270.996 257.226 274.431 257.38C277.866 257.535 272.608 260.527 266.926 260.13C261.244 259.733 254.305 257.773 251.847 258.247C249.388 258.721 242.523 258.794 242.523 257.38C242.523 255.967 243.222 252.665 243.222 252.665C243.222 252.665 235.648 245.612 227.949 244.121C220.249 242.63 203.385 228.563 203.524 222.043C203.524 222.043 201.143 221.805 198.404 226.52C198.404 226.52 196.442 228.408 193.145 233.67C189.849 238.932 185.921 246.474 185.921 246.474C185.921 246.474 179.82 260.295 174.912 260.183C170.003 260.072 164.741 259.438 164.741 259.438L158.216 254.253L157.784 247.96L157.024 238.308Z" fill="black"/>
<path d="M159.971 239.014C159.971 239.014 172.734 226.365 173.365 225.421C173.996 224.478 189.844 211.432 189.844 211.432C189.844 211.432 200.503 197.998 202.681 197.446C204.859 196.895 210.325 197.132 211.448 199.252C212.571 201.372 217.406 205.226 217.406 205.226L221.545 210.41C221.545 210.41 231.293 218.896 237.606 226.675C243.918 234.454 251.354 242.863 254.024 243.178C256.695 243.492 260.756 247.345 260.756 247.345C260.756 247.345 266.507 250.487 268.533 253C270.56 255.512 273.934 257.952 277.369 258.107C280.804 258.261 275.546 261.253 269.864 260.856C264.182 260.459 257.239 258.504 254.785 258.973C252.331 259.443 245.465 259.544 245.465 258.092C245.465 256.64 246.169 253.377 246.169 253.377C246.169 253.377 238.595 246.31 230.878 244.814C223.161 243.318 206.345 229.27 206.47 222.754C206.47 222.754 204.085 222.517 201.35 227.232C201.35 227.232 199.389 229.12 196.092 234.382C192.795 239.644 188.868 247.191 188.868 247.191C188.868 247.191 182.767 260.997 177.854 260.895C172.942 260.793 167.688 260.149 167.688 260.149L161.163 254.965L160.731 248.672L159.971 239.014Z" fill="#FFBEC5"/>
<path opacity="0.1" d="M201.052 246.377C200.707 246.542 200.37 246.74 200.037 246.939L197.876 248.231C199.759 248.58 201.674 248.643 203.571 248.42C204.625 248.294 206.107 247.292 204.906 246.106C203.951 245.177 202.024 245.903 201.052 246.377Z" fill="black"/>
<path opacity="0.1" d="M191.179 248.052C192.35 247.791 193.612 247.534 194.705 248.052C195.079 248.255 195.434 248.499 195.764 248.783L197.639 250.298C196.024 250.832 194.362 251.173 192.683 251.315C192.46 251.349 192.233 251.339 192.013 251.286C191.725 251.172 191.464 250.987 191.249 250.744C189.784 249.379 188.794 248.585 191.179 248.052Z" fill="black"/>
<path opacity="0.1" d="M118.029 169.786C116.811 171.353 115.779 173.089 114.957 174.951C112.386 175.74 109.677 175.77 107.093 175.04C104.508 174.31 102.136 172.844 100.206 170.783C100.669 168.503 100.768 166.335 100.206 164.602C97.9725 157.529 118.029 169.786 118.029 169.786Z" fill="black"/>
<path d="M110.861 175.097C119.383 175.097 126.291 167.357 126.291 157.81C126.291 148.263 119.383 140.524 110.861 140.524C102.34 140.524 95.432 148.263 95.432 157.81C95.432 167.357 102.34 175.097 110.861 175.097Z" fill="#FFBEC5"/>
<path d="M112.719 185.659L111.894 187.15L121.914 199.334L126.623 203.023L129.345 198.933L112.719 185.659Z" fill="#504F88"/>
<path d="M128.14 198.734C128.14 198.734 133.078 198.037 135.36 202.278C136.705 204.726 137.555 207.476 137.849 210.333C137.849 210.333 140.126 212.375 139.918 213.518C139.748 214.25 139.349 214.891 138.795 215.324C138.795 215.324 134.375 212.497 134.34 212.375C134.306 212.254 130.94 208.091 130.94 208.091L128.14 204.795V198.734Z" fill="#504F88"/>
<path opacity="0.1" d="M98.3917 181.888C98.3917 181.888 90.6792 182.576 89.9058 188.607C89.1324 194.639 88.8559 198.076 91.5909 202.239C94.3259 206.402 99.9342 208.135 99.9342 208.135C99.9342 208.135 108.42 215.599 108.494 220.155C108.567 224.71 115.718 234.929 115.718 234.929C115.718 234.929 129.333 246.242 128.347 249.858C127.362 253.474 127.077 263.765 130.655 264.709C134.232 265.653 140.052 264.864 140.895 266.045C141.737 267.227 155.624 265.416 155.624 265.416C155.624 265.416 163.337 263.451 168.457 265.179C171.645 266.174 175.043 265.893 178.066 264.385C178.066 264.385 184.029 263.756 184.379 261.084C184.729 258.411 187.403 258.494 184.871 258.019C182.339 257.545 180.732 259.041 178.909 258.334C177.085 257.627 175.543 255.27 171.334 255.347C167.126 255.425 166.149 255.507 165.717 255.425C165.285 255.342 168.383 252.675 166.698 248.357C165.013 244.039 161.794 240.665 161.937 238.245C162.079 235.824 155.624 227.556 155.624 227.556C155.624 227.556 152.539 222.531 148.538 220.881C144.537 219.23 137.036 209.089 137.036 209.089C137.036 209.089 130.611 197.882 127.125 197.282C123.638 196.682 112.209 185.18 112.209 185.18C112.209 185.18 102.518 180.702 98.3917 181.888Z" fill="black"/>
<path d="M98.1844 182.358C98.1844 182.358 90.4675 183.06 89.6855 189.077C88.9034 195.094 88.6355 198.545 91.3706 202.713C94.1056 206.881 99.7182 208.605 99.7182 208.605C99.7182 208.605 108.204 216.069 108.273 220.629C108.342 225.189 115.498 235.398 115.498 235.398C115.498 235.398 129.121 246.716 128.14 250.347C127.159 253.977 126.874 264.254 130.447 265.198C134.02 266.142 139.849 265.358 140.687 266.534C141.526 267.711 155.417 265.905 155.417 265.905C155.417 265.905 163.134 263.945 168.254 265.673C171.44 266.665 174.835 266.381 177.854 264.869C177.854 264.869 183.817 264.24 184.167 261.573C184.517 258.905 187.191 258.978 184.659 258.508C182.128 258.039 180.52 259.53 178.697 258.818C176.874 258.107 175.331 255.754 171.123 255.836C166.914 255.919 165.938 255.991 165.506 255.914C165.074 255.836 168.167 253.164 166.486 248.841C164.806 244.518 161.578 241.14 161.734 238.705C161.889 236.27 155.421 228.016 155.421 228.016C155.421 228.016 152.336 222.991 148.339 221.341C144.343 219.69 136.838 209.553 136.838 209.553C136.838 209.553 130.408 198.347 126.926 197.742C123.443 197.137 112.006 185.664 112.006 185.664C112.006 185.664 102.306 181.172 98.1844 182.358Z" fill="#FD6F8D"/>
<path opacity="0.1" d="M148.179 250.347C147.704 251.533 147.6 253.077 148.417 253.997C148.934 254.471 149.535 254.817 150.18 255.013C151.498 255.589 152.772 256.601 153.204 258.111C153.284 258.53 153.43 258.928 153.637 259.288C153.856 259.554 154.128 259.758 154.432 259.883C158.19 261.784 162.277 262.73 166.4 262.652C165.035 261.182 163.304 260.21 161.435 259.864C159.949 259.593 158.376 259.718 157.002 259.026C155.628 258.334 154.712 257.013 153.814 255.715C153.482 255.288 153.222 254.795 153.049 254.263C152.725 253.096 153.243 251.804 152.945 250.632C152.772 249.959 151.329 247.554 150.716 247.403C149.778 247.195 148.495 249.558 148.179 250.347Z" fill="black"/>
<path opacity="0.1" d="M202.625 221.181C203.489 220.866 207.883 219.947 206.557 218.078C205.347 216.364 203.563 220.818 202.625 221.181Z" fill="black"/>
<path d="M186.841 173.059L194.303 168.987L191.711 210.947L183.852 209.2L185.891 174.622C185.914 174.291 186.014 173.973 186.18 173.699C186.347 173.424 186.575 173.204 186.841 173.059Z" fill="#CBE3FF"/>
<path d="M194.303 168.987L191.711 210.947C191.997 210.947 192.273 210.826 192.483 210.608C192.693 210.39 192.821 210.091 192.843 209.771L195.543 171.021C195.574 170.574 195.467 170.13 195.242 169.76C195.016 169.391 194.685 169.118 194.303 168.987Z" fill="#C8BFCA"/>
<path d="M183.877 208.963L160.2 228.461C160.002 228.62 159.836 228.824 159.714 229.059C159.591 229.295 159.514 229.557 159.488 229.827C159.462 230.098 159.487 230.372 159.562 230.632C159.637 230.891 159.76 231.13 159.923 231.332L162.239 234.285L192.199 209.2L184.906 208.614C184.537 208.588 184.172 208.712 183.877 208.963Z" fill="#F1F1F2"/>
<path d="M183.268 210.943L167.32 223.451L169.541 226.148L188.146 211.315L183.268 210.943Z" fill="#7E7A98"/>
<path d="M162.248 234.285L192.199 209.2C192.436 209.754 192.495 210.383 192.364 210.98C192.233 211.577 191.921 212.104 191.482 212.472L165.173 234.58C164.74 234.948 164.2 235.121 163.659 235.067C163.118 235.012 162.615 234.733 162.248 234.285Z" fill="#C8BFCA"/>
<path d="M157.089 227.542C157.089 227.542 167.545 203.875 173.719 212.927C179.894 221.98 164.248 231.806 164.248 231.806L157.089 227.542Z" fill="#FFBEC5"/>
<path opacity="0.1" d="M101.351 188.651C99.2796 189.255 97.3811 190.445 95.8377 192.107C94.2943 193.77 93.1578 195.848 92.5371 198.144C91.8588 200.743 91.9063 203.594 94.2049 205.502C99.4676 209.858 106.899 212.927 110.339 220.077C112.491 224.753 113.978 229.777 114.746 234.967L123.655 249.698C123.655 249.698 125.007 254.413 134.025 250.724C143.042 247.036 147.972 245.143 147.972 245.143C147.972 245.143 154.963 240.941 158.087 239.407C158.527 239.155 158.995 238.97 159.478 238.855C160.528 238.855 168.046 231.647 168.392 230.654C168.738 229.662 160.792 225.538 157.616 226.433C157.616 226.433 157.162 228.563 151.2 228.248C145.237 227.934 142.99 230.766 142.99 230.766C142.99 230.766 140.044 229.585 138.151 229.701C136.259 229.817 132.824 227.764 130.261 228.011C130.261 228.011 131.558 225.107 129.877 222.686C128.196 220.266 126.649 220.484 125.949 217.618C125.548 215.982 124.221 210.778 123.145 206.596C121.743 201.027 118.949 196.023 115.091 192.175C112.577 189.692 109.587 187.673 106.588 187.794C104.819 187.858 103.063 188.146 101.351 188.651Z" fill="black"/>
<path opacity="0.1" d="M101.537 187.47C99.4638 188.075 97.5636 189.266 96.0182 190.929C94.4728 192.592 93.3338 194.671 92.71 196.967C92.0359 199.567 92.0791 202.413 94.3821 204.32C99.6404 208.677 107.076 211.746 110.511 218.896C112.669 223.571 114.16 228.595 114.931 233.786L123.841 248.522C123.841 248.522 125.189 253.237 134.211 249.543C143.232 245.85 148.158 243.967 148.158 243.967C148.158 243.967 155.149 239.76 158.268 238.23C158.708 237.977 159.176 237.792 159.66 237.678C160.714 237.678 168.232 230.47 168.573 229.478C168.915 228.486 160.978 224.361 157.802 225.257C157.802 225.257 157.348 227.387 151.386 227.072C145.423 226.758 143.176 229.585 143.176 229.585C143.176 229.585 140.229 228.408 138.337 228.524C136.444 228.641 133.005 226.588 130.447 226.835C130.447 226.835 131.743 223.93 130.058 221.51C128.373 219.09 126.835 219.312 126.131 216.442C125.733 214.81 124.403 209.607 123.331 205.419C121.928 199.851 119.133 194.847 115.277 190.999C112.758 188.515 109.773 186.497 106.774 186.642C105.006 186.695 103.249 186.973 101.537 187.47Z" fill="black"/>
<path d="M101.351 187.944C99.2796 188.548 97.3811 189.738 95.8377 191.401C94.2943 193.063 93.1578 195.141 92.5371 197.437C91.8588 200.036 91.9063 202.888 94.2049 204.795C99.4676 209.152 106.899 212.221 110.339 219.37C112.491 224.046 113.978 229.07 114.746 234.261L123.655 248.991C123.655 248.991 125.007 253.706 134.025 250.013C143.042 246.319 147.972 244.436 147.972 244.436C147.972 244.436 154.963 240.229 158.087 238.7C158.526 238.446 158.994 238.261 159.478 238.148C160.528 238.148 168.046 230.94 168.392 229.948C168.738 228.955 160.792 224.831 157.616 225.726C157.616 225.726 157.162 227.856 151.2 227.542C145.237 227.227 142.99 230.054 142.99 230.054C142.99 230.054 140.044 228.878 138.151 228.994C136.259 229.11 132.824 227.058 130.261 227.305C130.261 227.305 131.558 224.4 129.877 221.98C128.196 219.559 126.649 219.782 125.949 216.916C125.548 215.28 124.221 210.076 123.145 205.889C121.743 200.321 118.948 195.319 115.091 191.473C112.577 188.985 109.587 186.971 106.588 187.116C104.82 187.171 103.064 187.449 101.351 187.944Z" fill="#FD6F8D"/>
<path opacity="0.1" d="M129.004 151.483C130.538 150.883 131.934 149.489 132.171 147.688C132.271 146.482 132.017 145.272 131.45 144.241C129.531 140.369 125.664 138.306 121.944 136.864C118.224 135.421 114.327 134.342 110.399 134.589C106.472 134.836 102.492 136.525 99.9515 139.914C99.5038 140.609 98.9748 141.234 98.3788 141.772C97.4757 142.465 96.3221 142.576 95.229 142.532C91.6255 142.382 87.8621 140.785 84.5395 142.353C80.5471 144.232 79.1472 149.716 78.6287 154.538C78.0929 159.495 77.9633 164.544 76.7924 169.365C75.6215 174.186 73.2192 178.897 69.3046 181.288C68.1596 181.985 66.9109 182.474 65.848 183.297C64.7851 184.12 63.8561 185.403 63.8518 186.864C63.8518 188.854 65.4418 190.316 66.2714 192.073C66.8763 193.356 67.1096 194.891 68.0213 195.917C69.8317 197.969 73.042 196.808 75.3666 198.056C77.4319 199.17 78.3219 201.895 79.9465 203.71C81.8563 205.845 84.6734 206.591 87.3609 206.799C88.8343 206.91 90.3595 206.881 91.7162 206.237C94.421 204.955 95.8555 201.493 96.0153 198.211C96.1752 194.929 95.3327 191.705 94.7191 188.486C94.516 187.426 94.3432 186.293 94.7191 185.282C95.0402 184.504 95.5396 183.836 96.1666 183.345C99.3596 180.518 103.909 179.226 105.741 175.155C106.973 172.42 106.605 169.171 106.899 166.127C107.012 165.018 107.258 163.842 107.992 163.082C108.891 162.157 110.235 162.114 111.449 161.992C115.049 161.586 118.447 159.933 121.171 157.263C122.493 155.971 123.292 154.359 124.441 152.95C125.591 151.541 127.453 152.079 129.004 151.483Z" fill="black"/>
<path d="M128.572 151.014C130.106 150.408 131.501 149.014 131.739 147.214C131.836 146.008 131.582 144.801 131.013 143.772C129.099 139.899 125.228 137.837 121.508 136.39C117.787 134.942 113.886 133.872 109.963 134.119C106.039 134.366 102.056 136.055 99.5108 139.444C99.0646 140.14 98.5371 140.765 97.9424 141.303C97.0393 141.995 95.8857 142.111 94.7926 142.063C91.1891 141.918 87.4257 140.32 84.0987 141.884C80.1064 143.767 78.7065 149.251 78.188 154.068C77.6565 159.03 77.5269 164.074 76.356 168.895C75.1851 173.717 72.7784 178.432 68.8638 180.818C67.7189 181.52 66.4702 182.004 65.4073 182.832C64.3444 183.66 63.4154 184.938 63.4154 186.395C63.4154 188.385 65.0054 189.851 65.835 191.608C66.4356 192.886 66.6732 194.426 67.5633 195.452C69.378 197.5 72.5883 196.338 74.9086 197.592C76.9782 198.705 77.8683 201.43 79.4928 203.246C81.3983 205.376 84.2154 206.126 86.9072 206.329C88.3763 206.446 89.9058 206.412 91.2625 205.768C93.9673 204.485 95.4018 201.029 95.5616 197.747C95.7215 194.465 94.8747 191.236 94.2654 188.021C94.0667 186.961 93.8938 185.829 94.2438 184.817C94.5678 184.04 95.0685 183.372 95.6956 182.881C98.8843 180.058 103.434 178.766 105.266 174.695C106.497 171.96 106.13 168.712 106.428 165.667C106.541 164.553 106.787 163.377 107.517 162.622C108.42 161.692 109.764 161.654 110.974 161.533C114.575 161.122 117.974 159.468 120.7 156.798C122.022 155.511 122.817 153.894 123.97 152.485C125.124 151.076 127.034 151.623 128.572 151.014Z" fill="#FFE2DA"/>
<g opacity="0.1">
<path opacity="0.1" d="M73.8673 196.159C71.7069 194.997 68.7688 195.926 66.9109 194.397C67.0857 194.777 67.3083 195.128 67.572 195.438C69.3867 197.485 72.597 196.323 74.9172 197.577C75.4437 197.865 75.9205 198.255 76.3258 198.729C75.7093 197.657 74.8644 196.774 73.8673 196.159Z" fill="black"/>
<path opacity="0.1" d="M131.026 143.772C130.594 142.898 130.059 142.094 129.436 141.38C129.638 141.691 129.824 142.014 129.994 142.349C130.561 143.378 130.814 144.586 130.715 145.79C130.477 147.591 129.082 148.985 127.548 149.59C126.014 150.195 124.091 149.624 122.946 151.043C121.801 152.461 120.993 154.068 119.671 155.356C116.947 158.025 113.55 159.679 109.95 160.09C108.731 160.216 107.387 160.25 106.493 161.179C105.759 161.934 105.512 163.116 105.404 164.224C105.093 167.264 105.473 170.517 104.242 173.252C102.41 177.318 97.8603 178.611 94.6673 181.438C94.0416 181.93 93.5424 182.598 93.2198 183.374C92.8655 184.381 93.0383 185.519 93.2414 186.579C93.855 189.793 94.7018 193.017 94.5376 196.304C94.3735 199.591 92.939 203.042 90.2385 204.325C88.8775 204.969 87.3523 204.998 85.8789 204.887C83.1914 204.683 80.3743 203.919 78.4645 201.803L78.4386 201.769C78.7629 202.285 79.1241 202.771 79.5188 203.222C81.4242 205.351 84.2413 206.102 86.9332 206.305C88.4022 206.421 89.9317 206.387 91.2884 205.744C93.9932 204.461 95.4277 201.004 95.5876 197.722C95.7474 194.44 94.9006 191.212 94.2914 187.997C94.0926 186.937 93.9198 185.804 94.2697 184.793C94.5937 184.016 95.0944 183.348 95.7215 182.856C98.9102 180.034 103.46 178.742 105.292 174.671C106.523 171.935 106.156 168.687 106.454 165.642C106.567 164.529 106.813 163.353 107.547 162.598C108.446 161.668 109.79 161.629 111.004 161.508C114.606 161.098 118.004 159.444 120.73 156.774C122.052 155.486 122.847 153.87 124.001 152.461C125.154 151.052 127.055 151.623 128.607 151.009C130.158 150.394 131.536 149.009 131.774 147.209C131.863 146.003 131.601 144.796 131.026 143.772Z" fill="black"/>
</g>
<path opacity="0.1" d="M435.767 380.714C453.569 380.714 468 378.233 468 375.172C468 372.11 453.569 369.629 435.767 369.629C417.966 369.629 403.535 372.11 403.535 375.172C403.535 378.233 417.966 380.714 435.767 380.714Z" fill="#1AA29C"/>
<path opacity="0.1" d="M46.1066 400C55.9857 400 63.9944 398.624 63.9944 396.926C63.9944 395.228 55.9857 393.852 46.1066 393.852C36.2274 393.852 28.2188 395.228 28.2188 396.926C28.2188 398.624 36.2274 400 46.1066 400Z" fill="#1AA29C"/>
<path d="M40.373 270.146C40.373 270.146 43.4537 274.662 38.9515 281.478C34.4493 288.294 30.7421 294.064 32.2284 298.305C32.2284 298.305 39.0292 285.641 44.5598 285.467C50.0903 285.292 46.4782 277.76 40.373 270.146Z" fill="#1AA29C"/>
<path opacity="0.1" d="M40.373 270.146C40.6422 270.581 40.8546 271.057 41.0038 271.559C46.4004 278.665 49.278 285.297 44.0888 285.467C39.2539 285.622 33.4555 295.303 32.0642 297.748C32.1117 297.937 32.1679 298.125 32.2284 298.305C32.2284 298.305 39.0292 285.641 44.5598 285.467C50.0903 285.292 46.4782 277.76 40.373 270.146Z" fill="black"/>
<path d="M46.1022 275.901C46.1022 277.489 45.9423 278.777 45.7479 278.777C45.5534 278.777 45.3936 277.489 45.3936 275.901C45.3936 274.313 45.5923 275.059 45.7867 275.059C45.9812 275.059 46.1022 274.309 46.1022 275.901Z" fill="#FFD037"/>
<path d="M48.0682 277.799C46.8238 278.559 45.7393 279.019 45.6442 278.825C45.5492 278.632 46.4825 277.857 47.7311 277.097C48.9798 276.337 48.483 276.894 48.5953 277.097C48.7076 277.3 49.3169 277.039 48.0682 277.799Z" fill="#FFD037"/>
<path d="M24.0881 270.146C24.0881 270.146 21.0074 274.662 25.5096 281.478C30.0118 288.294 33.719 294.064 32.2283 298.305C32.2283 298.305 25.4318 285.641 19.897 285.467C14.3621 285.292 18.0002 277.76 24.0881 270.146Z" fill="#1AA29C"/>
<path opacity="0.1" d="M24.0881 270.146C23.8188 270.581 23.6064 271.057 23.4572 271.559C18.0606 278.665 15.183 285.297 20.3722 285.467C25.2071 285.622 31.0056 295.303 32.3925 297.748C32.3489 297.937 32.294 298.123 32.2283 298.305C32.2283 298.305 25.4318 285.641 19.897 285.467C14.3621 285.292 18.0002 277.76 24.0881 270.146Z" fill="black"/>
<path d="M18.3588 275.901C18.3588 277.489 18.5186 278.777 18.7131 278.777C18.9075 278.777 19.0674 277.489 19.0674 275.901C19.0674 274.313 18.8686 275.059 18.6742 275.059C18.4797 275.059 18.3588 274.309 18.3588 275.901Z" fill="#FFD037"/>
<path d="M16.3928 277.799C17.6372 278.559 18.7217 279.019 18.8167 278.825C18.9118 278.632 17.9785 277.857 16.7298 277.097C15.4811 276.337 15.978 276.894 15.8657 277.097C15.7533 277.3 15.1441 277.039 16.3928 277.799Z" fill="#FFD037"/>
<path opacity="0.1" d="M32.2327 332.858C50.0343 332.858 64.4653 330.377 64.4653 327.315C64.4653 324.254 50.0343 321.773 32.2327 321.773C14.431 321.773 0 324.254 0 327.315C0 330.377 14.431 332.858 32.2327 332.858Z" fill="#1AA29C"/>
<path d="M48.82 292.22L48.6644 293.628L48.4484 295.623L48.3577 296.45L48.1416 298.445L48.0509 299.278L47.8348 301.267L45.3677 323.927C45.1473 325.95 42.1963 327.524 38.6403 327.524H25.8207C22.2604 327.524 19.3396 325.95 19.0977 323.927L16.6262 301.272L16.4102 299.282L16.3194 298.45L16.0991 296.455L16.0126 295.628L15.7966 293.633L15.6411 292.224C15.5158 291.082 17.1101 290.114 19.1279 290.114H45.3375C47.3423 290.109 48.9453 291.077 48.82 292.22Z" fill="#65617D"/>
<path d="M48.6688 293.628L48.4527 295.618H16.0127L15.7966 293.628H48.6688Z" fill="#9D9CB5"/>
<path d="M48.362 296.451L48.1459 298.445H16.3238L16.1034 296.451H48.362Z" fill="#9D9CB5"/>
<path d="M48.0509 299.273L47.8348 301.267H16.6262L16.4102 299.273H48.0509Z" fill="#9D9CB5"/>
<defs>
<linearGradient id="paint0_linear" x1="171.049" y1="268.645" x2="171.049" y2="132.972" gradientUnits="userSpaceOnUse">
<stop stop-color="#808080" stop-opacity="0.25"/>
<stop offset="0.54" stop-color="#808080" stop-opacity="0.12"/>
<stop offset="1" stop-color="#808080" stop-opacity="0.1"/>
</linearGradient>
</defs>
</svg>
