<svg width="250" height="108" viewBox="0 0 250 108" fill="none" xmlns="http://www.w3.org/2000/svg">
<g clip-path="url(#clip0)">
<path opacity="0.5" d="M141.803 49.6548L91.9965 0H104.872L148.243 43.218L141.803 49.6548Z" fill="white"/>
<path d="M116.088 49.6548L87.9915 21.6008H100.843L122.528 43.2221L116.088 49.6548Z" fill="white"/>
<path opacity="0.5" d="M122.52 43.1975L79.5265 86.1861L66.7366 86.1001L116.084 36.7648L122.52 43.1975Z" fill="white"/>
<path d="M148.243 43.1975L83.3716 108H70.4998L141.803 36.7648L148.243 43.1975Z" fill="white"/>
<path d="M44.9529 73.3125H57.5132V76.0372H48.2119V83.4H60.1532V86.1001H44.9529" fill="white"/>
<path d="M44.9529 64.1059H59.5956V66.7978H44.9529" fill="white"/>
<path d="M154.753 66.8019H147.944V86.1001H144.685V66.8019H137.876V64.1018H154.753V66.8019Z" fill="white"/>
<path d="M203.932 75.0989C203.915 77.306 203.245 79.4587 202.005 81.2855C200.766 83.1124 199.013 84.5316 196.968 85.3643C194.923 86.197 192.677 86.4058 190.514 85.9646C188.35 85.5233 186.365 84.4516 184.81 82.8846C183.255 81.3177 182.199 79.3256 181.775 77.1595C181.351 74.9934 181.578 72.7503 182.427 70.713C183.277 68.6757 184.711 66.9354 186.548 65.7114C188.386 64.4875 190.545 63.8348 192.753 63.8355C194.23 63.8311 195.693 64.12 197.057 64.6856C198.422 65.2512 199.66 66.0822 200.7 67.1301C201.74 68.1781 202.561 69.4223 203.116 70.7903C203.671 72.1583 203.948 73.6228 203.932 75.0989ZM184.829 75.0989C184.829 79.6059 188.109 83.7032 192.753 83.7032C197.398 83.7032 200.673 79.6059 200.673 75.0989C200.673 70.5919 197.394 66.5315 192.753 66.5315C188.113 66.5315 184.829 70.6288 184.829 75.0989Z" fill="white"/>
<path d="M242.269 80.3065H236.968V86.1124H233.689V64.1018H242.269C246.552 64.1305 250.016 67.7361 250.016 72.198C250.016 76.66 246.536 80.2615 242.269 80.3065ZM246.757 72.2103C246.741 69.2439 244.728 66.7855 242.195 66.7855H236.968V77.5778H242.195C244.716 77.5778 246.741 75.144 246.741 72.1857" fill="white"/>
<path d="M14.323 64.1018V79.147C14.323 82.6952 12.5849 86.391 7.19018 86.391C1.79549 86.391 0 82.6952 0 79.147H3.25485C3.25485 80.4663 3.37373 83.6909 7.19018 83.6909C11.0066 83.6909 11.0312 80.4663 11.0312 79.147V64.1018H14.323Z" fill="white"/>
</g>
<defs>
<clipPath id="clip0">
<rect width="250" height="108" fill="white"/>
</clipPath>
</defs>
</svg>
