<svg width="280" height="165" viewBox="0 0 280 165" fill="none" xmlns="http://www.w3.org/2000/svg">
<path d="M257.955 2.03202H159.915V0H115.46V2.03202H17.0157C16.1448 2.03202 15.2824 2.20452 14.4778 2.53966C13.6732 2.8748 12.9422 3.36603 12.3263 3.98529C11.7105 4.60455 11.2221 5.33971 10.8888 6.14882C10.5555 6.95792 10.384 7.82511 10.384 8.70088V143.701C10.384 145.469 11.0827 147.166 12.3263 148.416C13.57 149.667 15.2568 150.369 17.0157 150.369H257.955C258.826 150.369 259.689 150.197 260.493 149.862C261.298 149.527 262.029 149.035 262.645 148.416C263.261 147.797 263.749 147.062 264.082 146.253C264.416 145.444 264.587 144.576 264.587 143.701V8.70088C264.587 7.82511 264.416 6.95792 264.082 6.14881C263.749 5.33971 263.261 4.60454 262.645 3.98528C262.029 3.36602 261.298 2.87479 260.493 2.53965C259.689 2.20451 258.826 2.03202 257.955 2.03202Z" fill="#003937"/>
<path d="M255.696 13.8177H19.275V147.931H255.696V13.8177Z" fill="#00A09A"/>
<path d="M137.283 10.1601C138.623 10.1601 139.708 9.06839 139.708 7.72169C139.708 6.37498 138.623 5.28326 137.283 5.28326C135.944 5.28326 134.859 6.37498 134.859 7.72169C134.859 9.06839 135.944 10.1601 137.283 10.1601Z" fill="#00A09A"/>
<path d="M242.124 30.8865H230.917V19.6168H242.124V30.8865ZM231.404 30.3966H241.636V20.1067H231.404V30.3966Z" fill="#003937"/>
<path d="M271.225 145.493H248.152V143.821C248.152 143.777 248.144 143.734 248.127 143.694C248.111 143.654 248.086 143.617 248.056 143.587C248.025 143.556 247.989 143.531 247.949 143.515C247.909 143.498 247.866 143.489 247.823 143.489H239.912C239.869 143.489 239.826 143.498 239.786 143.515C239.746 143.531 239.709 143.556 239.679 143.587C239.648 143.617 239.624 143.654 239.607 143.694C239.591 143.734 239.582 143.777 239.582 143.821V145.493H234.638V143.821C234.638 143.777 234.629 143.734 234.613 143.694C234.596 143.654 234.572 143.617 234.541 143.587C234.511 143.556 234.474 143.531 234.435 143.515C234.395 143.498 234.352 143.489 234.308 143.489H226.398C226.354 143.489 226.311 143.498 226.271 143.515C226.231 143.531 226.195 143.556 226.164 143.587C226.134 143.617 226.11 143.654 226.093 143.694C226.076 143.734 226.068 143.777 226.068 143.821V145.493H221.124V143.821C221.124 143.777 221.115 143.734 221.099 143.694C221.082 143.654 221.058 143.617 221.027 143.587C220.997 143.556 220.96 143.531 220.92 143.515C220.88 143.498 220.837 143.489 220.794 143.489H212.883C212.84 143.489 212.797 143.498 212.757 143.515C212.717 143.531 212.681 143.556 212.65 143.587C212.62 143.617 212.595 143.654 212.579 143.694C212.562 143.734 212.554 143.777 212.554 143.821V145.493H207.609V143.821C207.609 143.777 207.601 143.734 207.584 143.694C207.568 143.654 207.543 143.617 207.513 143.587C207.482 143.556 207.446 143.531 207.406 143.515C207.366 143.498 207.323 143.489 207.28 143.489H199.369C199.326 143.489 199.283 143.498 199.243 143.515C199.203 143.531 199.167 143.556 199.136 143.587C199.105 143.617 199.081 143.654 199.064 143.694C199.048 143.734 199.039 143.777 199.039 143.821V145.493H194.095V143.821C194.095 143.777 194.087 143.734 194.07 143.694C194.053 143.654 194.029 143.617 193.999 143.587C193.968 143.556 193.932 143.531 193.892 143.515C193.852 143.498 193.809 143.489 193.766 143.489H185.855C185.811 143.489 185.769 143.498 185.729 143.515C185.689 143.531 185.652 143.556 185.622 143.587C185.591 143.617 185.567 143.654 185.55 143.694C185.534 143.734 185.525 143.777 185.525 143.821V145.493H180.581V143.821C180.581 143.777 180.572 143.734 180.556 143.694C180.539 143.654 180.515 143.617 180.484 143.587C180.454 143.556 180.417 143.531 180.377 143.515C180.337 143.498 180.294 143.489 180.251 143.489H172.34C172.297 143.489 172.254 143.498 172.214 143.515C172.174 143.531 172.138 143.556 172.107 143.587C172.077 143.617 172.052 143.654 172.036 143.694C172.019 143.734 172.011 143.777 172.011 143.821V145.493H167.067V143.821C167.067 143.777 167.058 143.734 167.041 143.694C167.025 143.654 167.001 143.617 166.97 143.587C166.939 143.556 166.903 143.531 166.863 143.515C166.823 143.498 166.78 143.489 166.737 143.489H104.769C104.726 143.489 104.683 143.498 104.643 143.515C104.603 143.531 104.567 143.556 104.536 143.587C104.505 143.617 104.481 143.654 104.464 143.694C104.448 143.734 104.439 143.777 104.439 143.821V145.493H99.4951V143.821C99.4951 143.777 99.4866 143.734 99.4701 143.694C99.4535 143.654 99.4292 143.617 99.3986 143.587C99.368 143.556 99.3317 143.531 99.2917 143.515C99.2517 143.498 99.2088 143.489 99.1655 143.489H91.2547C91.2114 143.489 91.1686 143.498 91.1286 143.515C91.0886 143.531 91.0522 143.556 91.0216 143.587C90.991 143.617 90.9668 143.654 90.9502 143.694C90.9336 143.734 90.9251 143.777 90.9251 143.821V145.493H85.9809V143.821C85.9809 143.777 85.9723 143.734 85.9558 143.694C85.9392 143.654 85.9149 143.617 85.8843 143.587C85.8537 143.556 85.8174 143.531 85.7774 143.515C85.7374 143.498 85.6945 143.489 85.6512 143.489H77.7404C77.6972 143.489 77.6543 143.498 77.6143 143.515C77.5743 143.531 77.538 143.556 77.5074 143.587C77.4767 143.617 77.4525 143.654 77.4359 143.694C77.4193 143.734 77.4108 143.777 77.4108 143.821V145.493H72.4666V143.821C72.4666 143.777 72.458 143.734 72.4415 143.694C72.4249 143.654 72.4006 143.617 72.37 143.587C72.3394 143.556 72.3031 143.531 72.2631 143.515C72.2231 143.498 72.1802 143.489 72.1369 143.489H64.2262C64.1829 143.489 64.14 143.498 64.1 143.515C64.06 143.531 64.0237 143.556 63.9931 143.587C63.9625 143.617 63.9382 143.654 63.9216 143.694C63.9051 143.734 63.8965 143.777 63.8965 143.821V145.493H58.9523V143.821C58.9523 143.777 58.9438 143.734 58.9272 143.694C58.9106 143.654 58.8864 143.617 58.8557 143.587C58.8251 143.556 58.7888 143.531 58.7488 143.515C58.7088 143.498 58.666 143.489 58.6227 143.489H50.7119C50.6686 143.489 50.6257 143.498 50.5857 143.515C50.5457 143.531 50.5094 143.556 50.4788 143.587C50.4482 143.617 50.4239 143.654 50.4073 143.694C50.3908 143.734 50.3822 143.777 50.3822 143.821V145.493H45.438V143.821C45.438 143.777 45.4295 143.734 45.4129 143.694C45.3963 143.654 45.3721 143.617 45.3415 143.587C45.3109 143.556 45.2745 143.531 45.2345 143.515C45.1945 143.498 45.1517 143.489 45.1084 143.489H37.1976C37.1543 143.489 37.1114 143.498 37.0714 143.515C37.0315 143.531 36.9951 143.556 36.9645 143.587C36.9339 143.617 36.9096 143.654 36.8931 143.694C36.8765 143.734 36.868 143.777 36.868 143.821V145.493H31.9237V143.821C31.9237 143.777 31.9152 143.734 31.8986 143.694C31.8821 143.654 31.8578 143.617 31.8272 143.587C31.7966 143.556 31.7602 143.531 31.7202 143.515C31.6802 143.498 31.6374 143.489 31.5941 143.489H23.6833C23.64 143.489 23.5971 143.498 23.5572 143.515C23.5172 143.531 23.4808 143.556 23.4502 143.587C23.4196 143.617 23.3953 143.654 23.3788 143.694C23.3622 143.734 23.3537 143.777 23.3537 143.821V145.493H8.19132C6.09324 145.493 4.0811 146.331 2.59754 147.823C1.11397 149.315 0.280519 151.338 0.280518 153.448V157.045C0.280523 159.155 1.11398 161.178 2.59754 162.67C4.08111 164.162 6.09325 165 8.19132 165H271.225C273.323 165 275.336 164.162 276.819 162.67C278.303 161.178 279.136 159.155 279.136 157.045V153.448C279.136 151.338 278.303 149.315 276.819 147.823C275.336 146.331 273.323 145.493 271.225 145.493Z" fill="#003937"/>
<path d="M241.081 88.5482H164.961V44.9696H241.081V88.5482ZM165.715 87.7903H240.328V45.7275H165.715V87.7903Z" fill="#003937"/>
<path d="M101.654 97.2639H33.8238V54.8221H101.654V97.2639ZM34.5774 96.506H100.9V55.58H34.5774V96.506Z" fill="#003937"/>
<path d="M65.5132 80.9693L65.4482 80.1218C65.2539 78.3622 65.8372 76.4394 67.4575 74.4843C68.9159 72.7569 69.726 71.4861 69.726 70.0195C69.726 68.3576 68.689 67.2496 66.6473 67.217C65.4796 67.2123 64.3381 67.5646 63.3742 68.2273L62.5964 66.1742C63.666 65.3919 65.5131 64.8705 67.2306 64.8705C70.9575 64.8705 72.6426 67.1845 72.6426 69.6609C72.6426 71.8772 71.4111 73.474 69.8555 75.3314C68.4297 77.0259 67.9112 78.4599 68.0084 80.1218L68.0408 80.9693L65.5132 80.9693ZM64.8002 85.5318C64.7827 85.2659 64.8203 84.9993 64.9106 84.7488C65.0008 84.4982 65.1417 84.2693 65.3245 84.0763C65.5072 83.8834 65.7277 83.7306 65.9722 83.6278C66.2166 83.5249 66.4796 83.4741 66.7445 83.4786C67.8788 83.4786 68.6566 84.3257 68.6566 85.5318C68.6673 85.7931 68.6254 86.054 68.5333 86.2986C68.4412 86.5433 68.3009 86.7667 68.1208 86.9554C67.9407 87.1441 67.7245 87.2943 67.4852 87.3969C67.2459 87.4995 66.9885 87.5524 66.7284 87.5524C66.4683 87.5524 66.2108 87.4995 65.9715 87.3969C65.7322 87.2943 65.5161 87.1441 65.336 86.9554C65.1558 86.7667 65.0155 86.5433 64.9235 86.2986C64.8314 86.054 64.7894 85.7931 64.8002 85.5318Z" fill="#2F2E41"/>
<path d="M200.796 71.4957L200.731 70.6482C200.537 68.8886 201.12 66.9658 202.74 65.0107C204.199 63.2833 205.009 62.0125 205.009 60.5459C205.009 58.884 203.972 57.776 201.93 57.7434C200.762 57.7386 199.621 58.091 198.657 58.7537L197.879 56.7006C198.949 55.9183 200.796 55.3968 202.513 55.3968C206.24 55.3968 207.925 57.7108 207.925 60.1873C207.925 62.4036 206.694 64.0004 205.138 65.8578C203.712 67.5523 203.194 68.9863 203.291 70.6482L203.323 71.4957L200.796 71.4957ZM200.083 76.0582C200.065 75.7923 200.103 75.5257 200.193 75.2752C200.283 75.0247 200.424 74.7957 200.607 74.6027C200.79 74.4098 201.01 74.2571 201.255 74.1542C201.499 74.0513 201.762 74.0005 202.027 74.0051C203.162 74.0051 203.939 74.8521 203.939 76.0582C203.95 76.3195 203.908 76.5804 203.816 76.825C203.724 77.0697 203.584 77.2931 203.403 77.4818C203.223 77.6706 203.007 77.8207 202.768 77.9233C202.529 78.0259 202.271 78.0788 202.011 78.0788C201.751 78.0788 201.493 78.0259 201.254 77.9233C201.015 77.8207 200.799 77.6706 200.619 77.4818C200.438 77.2931 200.298 77.0697 200.206 76.825C200.114 76.5804 200.072 76.3195 200.083 76.0582Z" fill="#2F2E41"/>
<path d="M138.817 131.547C156.776 131.547 171.335 116.907 171.335 98.8471C171.335 80.7875 156.776 66.1472 138.817 66.1472C120.858 66.1472 106.3 80.7875 106.3 98.8471C106.3 116.907 120.858 131.547 138.817 131.547Z" fill="#0B5956"/>
<path d="M126.258 143.627L116.537 141.857L119.69 121.446L129.411 123.215L126.258 143.627Z" fill="#0B5956"/>
<path d="M148.852 126.754L139.132 124.985L135.979 142.499L145.7 144.268L148.852 126.754Z" fill="#0B5956"/>
<path d="M152.197 145.222C152.534 143.542 149.195 141.446 144.738 140.541C140.281 139.636 136.395 140.265 136.058 141.946C135.72 143.627 139.06 145.723 143.516 146.627C147.973 147.532 151.859 146.903 152.197 145.222Z" fill="#0B5956"/>
<path d="M131.95 144.695C132.174 142.995 128.702 141.13 124.195 140.53C119.687 139.929 115.852 140.821 115.628 142.52C115.404 144.22 118.876 146.085 123.384 146.685C127.891 147.285 131.726 146.394 131.95 144.695Z" fill="#0B5956"/>
<path d="M141.094 102.024C147.232 102.024 152.207 97.0208 152.207 90.8485C152.207 84.6762 147.232 79.6726 141.094 79.6726C134.956 79.6726 129.98 84.6762 129.98 90.8485C129.98 97.0208 134.956 102.024 141.094 102.024Z" fill="white"/>
<path d="M145.661 90.5679C147.707 90.5679 149.366 88.9 149.366 86.8425C149.366 84.7851 147.707 83.1172 145.661 83.1172C143.615 83.1172 141.957 84.7851 141.957 86.8425C141.957 88.9 143.615 90.5679 145.661 90.5679Z" fill="#003937"/>
<path d="M113.165 63.2731C112.676 51.167 123.052 40.9132 136.34 40.3704C149.627 39.8276 160.796 49.2015 161.285 61.3075C161.774 73.4135 152.537 76.1641 139.249 76.7069C125.961 77.2496 113.654 75.3791 113.165 63.2731Z" fill="white"/>
<path d="M169.983 97.8928C178.736 95.8753 185.321 91.9999 184.691 89.2368C184.061 86.4737 176.455 85.8693 167.702 87.8868C158.95 89.9042 152.365 93.7796 152.995 96.5427C153.625 99.3058 161.231 99.9103 169.983 97.8928Z" fill="#0B5956"/>
<path d="M106.152 108.567C114.905 106.55 121.49 102.674 120.86 99.9113C120.23 97.1482 112.624 96.5438 103.871 98.5612C95.1189 100.579 88.5342 104.454 89.164 107.217C89.7938 109.98 97.3997 110.585 106.152 108.567Z" fill="#0B5956"/>
<path d="M129.886 111.734C129.713 112.697 129.73 113.684 129.936 114.64C130.142 115.597 130.534 116.503 131.088 117.307C131.643 118.111 132.349 118.797 133.168 119.326C133.986 119.856 134.9 120.218 135.857 120.392C136.814 120.567 137.797 120.55 138.748 120.342C139.698 120.135 140.599 119.741 141.399 119.184C142.198 118.626 142.881 117.916 143.407 117.093C143.934 116.27 144.294 115.351 144.467 114.388C145.196 110.339 142.083 108.906 138.057 108.173C134.03 107.44 130.615 107.685 129.886 111.734Z" fill="white"/>
<path d="M68.6243 4.9726H15.1567V56.1177H68.6243V4.9726Z" fill="#2F2E41"/>
<path d="M62.5484 11.0825H21.2326V42.8541H62.5484V11.0825Z" fill="white"/>
<path d="M43.6647 46.6023H21.1917V47.7917H43.6647V46.6023Z" fill="#F2F2F2"/>
<path d="M43.6647 50.1706H21.1917V51.36H43.6647V50.1706Z" fill="#F2F2F2"/>
<path d="M28.5841 31.7346C31.197 31.7346 33.3153 29.6045 33.3153 26.9769C33.3153 24.3493 31.197 22.2192 28.5841 22.2192C25.9711 22.2192 23.8529 24.3493 23.8529 26.9769C23.8529 29.6045 25.9711 31.7346 28.5841 31.7346Z" fill="#003937"/>
<path d="M41.8905 31.7346C44.5034 31.7346 46.6217 29.6045 46.6217 26.9769C46.6217 24.3493 44.5034 22.2192 41.8905 22.2192C39.2775 22.2192 37.1593 24.3493 37.1593 26.9769C37.1593 29.6045 39.2775 31.7346 41.8905 31.7346Z" fill="#00A09A"/>
<path d="M55.1969 31.7346C57.8098 31.7346 59.9281 29.6045 59.9281 26.9769C59.9281 24.3493 57.8098 22.2192 55.1969 22.2192C52.5839 22.2192 50.4657 24.3493 50.4657 26.9769C50.4657 29.6045 52.5839 31.7346 55.1969 31.7346Z" fill="#E6E6E6"/>
<path d="M41.8905 10.325C43.1969 10.325 44.2561 9.25996 44.2561 7.94616C44.2561 6.63237 43.1969 5.56732 41.8905 5.56732C40.584 5.56732 39.5249 6.63237 39.5249 7.94616C39.5249 9.25996 40.584 10.325 41.8905 10.325Z" fill="#003937"/>
<path d="M94.0556 104.005H40.5881V155.15H94.0556V104.005Z" fill="#2F2E41"/>
<path d="M87.9798 110.115H46.664V141.886H87.9798V110.115Z" fill="white"/>
<path d="M70.2398 115.336H55.7555V129.901H70.2398V115.336Z" fill="#00A09A"/>
<path d="M61.3002 118.978V136.665H78.8883V118.978H61.3002ZM78.1254 135.898H62.0631V119.745H78.1254V135.898Z" fill="#003937"/>
<path d="M69.0961 145.04H46.6231V146.229H69.0961V145.04Z" fill="#F2F2F2"/>
<path d="M67.3219 109.357C68.6284 109.357 69.6875 108.292 69.6875 106.978C69.6875 105.664 68.6284 104.599 67.3219 104.599C66.0154 104.599 64.9563 105.664 64.9563 106.978C64.9563 108.292 66.0154 109.357 67.3219 109.357Z" fill="#003937"/>
<path d="M233.263 88.693H179.795V139.838H233.263V88.693Z" fill="#2F2E41"/>
<path d="M227.187 94.8029H185.871V126.574H227.187V94.8029Z" fill="white"/>
<path d="M210.973 119.675H202.085V122.324H210.973V119.675Z" fill="#003937"/>
<path d="M221.718 99.0533H191.339V100.188H221.718V99.0533Z" fill="#003937"/>
<path d="M221.718 102.648H191.339V103.783H221.718V102.648Z" fill="#003937"/>
<path d="M221.718 106.243H191.339V107.378H221.718V106.243Z" fill="#003937"/>
<path d="M221.718 109.837H191.339V110.972H221.718V109.837Z" fill="#003937"/>
<path d="M221.718 113.432H191.339V114.567H221.718V113.432Z" fill="#003937"/>
<path d="M208.303 129.728H185.83V130.917H208.303V129.728Z" fill="#F2F2F2"/>
<path d="M217.174 132.702H185.83V133.891H217.174V132.702Z" fill="#F2F2F2"/>
<path d="M206.529 94.0454C207.836 94.0454 208.895 92.9803 208.895 91.6665C208.895 90.3527 207.836 89.2877 206.529 89.2877C205.223 89.2877 204.163 90.3527 204.163 91.6665C204.163 92.9803 205.223 94.0454 206.529 94.0454Z" fill="#003937"/>
</svg>
