<svg width="280" height="178" viewBox="0 0 280 178" fill="none" xmlns="http://www.w3.org/2000/svg">
<g clip-path="url(#clip0)">
<g opacity="0.5">
<path opacity="0.5" d="M65.4709 16.7673C65.7742 15.3789 65.9471 14.2457 65.8228 13.6745L65.6984 13.6928L65.8895 13.6077L66.4052 13.1307H66.4204L66.8451 12.7388C67.5623 13.1846 68.3672 13.4699 69.2047 13.5751C70.0423 13.6804 70.8926 13.6031 71.6976 13.3487C72.5025 13.0942 73.243 12.6685 73.8684 12.1007C74.4938 11.533 74.9893 10.8366 75.3209 10.0592C75.8336 10.363 76.231 10.4936 76.2977 10.2263C76.6919 9.00947 76.9045 7.74106 76.9287 6.46206C76.9307 6.00754 76.8829 5.55417 76.7861 5.11009C76.14 2.22692 73.1883 0.294683 70.2518 0.0212527C67.9978 -0.188377 65.5346 0.513429 64.1695 2.32111C62.9864 3.88877 60.6596 4.93996 59.6191 6.60484C58.7788 7.94769 59.0397 9.74929 58.6423 11.2957C58.2111 11.5761 57.7958 11.8804 57.3985 12.2071C56.4507 12.8407 55.6338 13.6515 54.9929 14.5951C53.9711 15.7867 53.0325 17.0475 52.1838 18.3684C47.6758 25.3044 44.9456 27.5587 43.4076 28.1967L56.3367 28.2787C58.4981 32.3532 61.4963 35.9233 65.1341 38.7542L65.213 38.7116L65.2676 38.7572L67.4093 37.5693C65.2948 34.2236 63.6071 30.6258 62.3857 26.8599C62.6891 26.0093 63.0804 24.8548 63.499 23.5727C66.478 27.5891 70.8009 31.9761 76.6891 34.6557L77.6447 32.9544C77.6447 32.9544 70.0334 26.3131 65.4709 16.7673Z" fill="url(#paint0_linear)"/>
<path opacity="0.5" d="M43.4136 28.2393H41.7239C41.7239 28.2393 42.1881 28.7314 43.4136 28.2393Z" fill="url(#paint1_linear)"/>
</g>
<path d="M62.4433 22.2329C65.1736 26.146 69.3326 30.6697 75.1844 33.3402L76.055 31.7878C76.055 31.7878 65.7409 22.7585 62.7224 10.9524L62.4191 11.2167C59.8466 13.4588 59.8466 18.5021 62.4433 22.2329Z" fill="#00A09A"/>
<path opacity="0.05" d="M62.4433 22.2329C65.1736 26.146 69.3326 30.6697 75.1844 33.3402L76.055 31.7878C76.055 31.7878 65.7409 22.7585 62.7224 10.9524L62.4191 11.2167C59.8466 13.4588 59.8466 18.5021 62.4433 22.2329Z" fill="black"/>
<path d="M63.7265 9.51233L61.7183 10.679L59.5068 14.0756L62.6617 15.3151L65.3464 14.1151L67.1817 12.4198L63.7265 9.51233Z" fill="#FDA57D"/>
<path d="M61.776 10.8643C61.776 10.8643 57.9901 10.5605 52.8451 18.4839C45.4583 29.8494 43.2984 27.4402 43.2984 27.4402L61.6698 27.5557C61.6698 27.5557 65.756 16.3693 65.2828 14.188C65.2858 14.1758 61.7517 14.8715 61.776 10.8643Z" fill="#00A09A"/>
<path opacity="0.1" d="M63.6719 9.47284C63.8934 11.08 64.5122 12.8664 65.8318 13.6897L66.8147 12.7783L63.6719 9.46677V9.47284Z" fill="black"/>
<path d="M74.3774 8.80642C74.3959 5.84498 72.0139 3.42916 69.0568 3.41055C66.0998 3.39195 63.6876 5.77759 63.669 8.73903C63.6504 11.7005 66.0325 14.1163 68.9896 14.1349C71.9466 14.1535 74.3588 11.7679 74.3774 8.80642Z" fill="#FDA57D"/>
<path opacity="0.1" d="M74.8446 11.0405C75.2633 9.56094 75.6273 8.00239 75.2906 6.48333C74.699 3.85232 72.0082 2.09022 69.3296 1.84109C67.2728 1.64969 65.0249 2.29073 63.7811 3.94043C62.7012 5.36834 62.5252 7.30058 61.5757 8.81964C60.696 10.2263 59.1944 11.2137 58.5421 12.7358C58.432 12.9391 58.3997 13.1756 58.4511 13.4011C58.5694 13.7505 58.985 13.872 59.3369 13.9784C60.2009 14.2417 61.0021 14.6787 61.6917 15.2627C62.3813 15.8467 62.9446 16.5655 63.3473 17.375C63.2472 14.5313 65.2979 12.1221 67.2334 10.041C68.1434 9.06877 69.6602 7.64085 71.0253 8.54925C71.2104 8.69508 74.6141 11.8547 74.8446 11.0405Z" fill="black"/>
<path d="M64.5972 17.2777C64.5972 17.2777 65.6742 20.2095 63.3565 21.1696L64.5972 17.2777Z" fill="#048984"/>
<path d="M270.293 25.4563H0V135.804H270.293V25.4563Z" fill="url(#paint2_linear)"/>
<path d="M268.472 27.0392H2.12354V133.981H268.472V27.0392Z" fill="white"/>
<path d="M65.2221 37.6726V65.927H76.7497V73.5223C80.0867 67.7499 84.9404 65.927 84.9404 65.927H131.051V37.6726H65.2221Z" fill="#00A09A"/>
<path d="M20.0217 84.1557V106.03H31.5493V113.625C34.8862 107.853 39.74 106.03 39.74 106.03H91.0076V84.1557H20.0217Z" fill="#00A09A"/>
<path d="M254.821 52.2555V74.1299H243.294V81.7252C239.957 75.9528 235.103 74.1299 235.103 74.1299H183.835V52.2555H254.821Z" fill="#E0E0E0"/>
<path d="M254.821 111.499V123.955H250.574V131.55C247.237 125.778 242.384 123.955 242.384 123.955H123.164V111.499H254.821Z" fill="#E0E0E0"/>
<path d="M249.057 119.702C250.23 119.702 251.181 118.75 251.181 117.575C251.181 116.4 250.23 115.448 249.057 115.448C247.885 115.448 246.934 116.4 246.934 117.575C246.934 118.75 247.885 119.702 249.057 119.702Z" fill="white"/>
<path d="M242.99 119.702C244.163 119.702 245.114 118.75 245.114 117.575C245.114 116.4 244.163 115.448 242.99 115.448C241.817 115.448 240.867 116.4 240.867 117.575C240.867 118.75 241.817 119.702 242.99 119.702Z" fill="white"/>
<path d="M236.923 119.702C238.096 119.702 239.047 118.75 239.047 117.575C239.047 116.4 238.096 115.448 236.923 115.448C235.75 115.448 234.8 116.4 234.8 117.575C234.8 118.75 235.75 119.702 236.923 119.702Z" fill="white"/>
<path d="M230.856 119.702C232.029 119.702 232.979 118.75 232.979 117.575C232.979 116.4 232.029 115.448 230.856 115.448C229.683 115.448 228.732 116.4 228.732 117.575C228.732 118.75 229.683 119.702 230.856 119.702Z" fill="white"/>
<path opacity="0.1" d="M54.3315 21.8592C56.0805 27.8987 59.6904 33.2303 64.6457 37.0923L66.5993 36.0077C66.5993 36.0077 58.2812 23.6487 60.793 11.5995L60.2591 11.7241C59.1893 11.9716 58.1811 12.4352 57.2965 13.0866C56.4118 13.738 55.6693 14.5634 55.1143 15.5123C54.5594 16.4611 54.2037 17.5135 54.0691 18.6049C53.9345 19.6962 54.0238 20.8036 54.3315 21.8592Z" fill="black"/>
<path d="M54.4529 21.8592C56.2018 27.8987 59.8118 33.2303 64.767 37.0923L66.7207 36.0077C66.7207 36.0077 58.3965 23.6365 60.9205 11.5873L60.3866 11.7119C59.3148 11.9585 58.3047 12.422 57.4184 13.0739C56.532 13.7258 55.7881 14.5523 55.2324 15.5027C54.6767 16.4531 54.3209 17.5072 54.1868 18.6003C54.0528 19.6934 54.1433 20.8024 54.4529 21.8592Z" fill="#00A09A"/>
<path d="M74.8446 10.922C75.2632 9.44247 75.6272 7.88392 75.2905 6.36486C74.699 3.73385 72.0082 1.97175 69.3295 1.72262C67.2727 1.53122 65.0249 2.17227 63.7811 3.82196C62.7011 5.24987 60.5807 6.20992 59.6311 7.72897C58.7514 9.13562 59.1943 11.0922 58.533 12.6173C58.4229 12.8206 58.3905 13.0572 58.442 13.2826C58.5603 13.632 58.9759 13.7536 59.3278 13.8599C60.1917 14.1232 60.993 14.5602 61.6825 15.1442C62.3721 15.7282 62.9355 16.447 63.3382 17.2565C63.2381 14.4128 65.2888 12.0036 67.2242 9.92249C68.1343 8.9503 69.6511 7.52238 71.0162 8.43078C71.2103 8.57357 74.614 11.7332 74.8446 10.922Z" fill="#333333"/>
<path d="M64.8186 37.144C64.8186 37.144 67.652 41.3973 68.2617 39.5744C68.8715 37.7516 66.845 35.9287 66.845 35.9287L64.8186 37.144Z" fill="#FDA57D"/>
<path d="M67.8436 10.4865C68.1935 9.7857 68.2343 9.09589 67.9346 8.94579C67.6349 8.79568 67.1083 9.24214 66.7583 9.94296C66.4083 10.6438 66.3676 11.3336 66.6673 11.4837C66.967 11.6338 67.4936 11.1874 67.8436 10.4865Z" fill="#FDA57D"/>
<g opacity="0.5">
<path opacity="0.5" d="M271.639 116.101C274.91 121.509 275.735 125.696 275.735 125.696C276.705 108.379 271.442 114.546 270.933 114.838V114.816L269.173 115.834C268.423 115.079 267.406 114.65 266.343 114.64C265.589 114.642 264.853 114.861 264.219 115.269C262.966 115.299 261.965 115.937 261.965 116.727C261.966 116.855 261.993 116.981 262.044 117.098C261.487 117.71 261.108 118.462 260.945 119.274C260.783 120.086 260.845 120.927 261.124 121.706C261.404 122.485 261.889 123.174 262.53 123.698C263.17 124.221 263.941 124.56 264.759 124.678L265.223 127.984L264.489 128.561C264.035 128.913 263.661 129.357 263.391 129.864C263.121 130.372 262.962 130.931 262.924 131.505C262.854 132.72 263.358 134.13 265.654 134.847C265.654 134.847 265.615 135.269 265.539 135.937L261.656 143.715C261.656 143.715 260.103 147.279 261.768 147.385C264.162 146.969 263.746 146.03 264.058 145.194L264.24 144.587H265.151C264.407 148.658 261.98 162.658 262.223 170.903V173.288L262.068 174.47L257.597 175.813C257.335 175.892 257.112 176.063 256.967 176.295C256.823 176.527 256.767 176.804 256.811 177.074C256.856 177.344 256.996 177.589 257.207 177.762C257.418 177.936 257.685 178.027 257.958 178.018L264.277 177.809C264.568 177.798 264.844 177.676 265.046 177.466C265.249 177.256 265.362 176.976 265.363 176.684V173.461H266.501V170.888L267.644 157.159L267.793 156.806L267.929 158.589L273.071 170.031L274.215 172.033L274.712 171.766L274.555 173.646L272.474 175.469C272.291 175.628 272.165 175.841 272.113 176.078C272.061 176.314 272.086 176.561 272.185 176.782C272.248 176.919 272.337 177.042 272.447 177.144C272.558 177.246 272.687 177.325 272.829 177.376C272.97 177.426 273.12 177.449 273.27 177.441C273.42 177.432 273.567 177.394 273.702 177.329L279.375 174.534C279.636 174.404 279.838 174.178 279.936 173.904C280.035 173.629 280.023 173.326 279.903 173.06L279.402 171.951C279.33 171.792 279.222 171.652 279.086 171.542C278.95 171.432 278.79 171.356 278.62 171.319L277.546 170.244L277.916 170.043L277.06 168.041L271.918 156.028L271.706 149.266C272.495 148.794 273.124 148.094 273.51 147.259C273.897 146.424 274.023 145.492 273.872 144.584H274.203C274.203 144.584 273.475 140.33 273.096 135.716L273.059 135.266V134.573C273.059 134.573 273.02 134.354 272.953 134.002C272.549 129.445 271.925 125.799 268.515 125.395L268.491 125.416V124.01C269.188 123.524 269.755 122.872 270.141 122.114C270.527 121.355 270.72 120.513 270.702 119.662C270.705 118.742 270.478 117.835 270.041 117.025L271.633 116.114L271.639 116.101Z" fill="url(#paint3_linear)"/>
</g>
<path d="M266.449 125.292C268.791 125.292 270.69 123.12 270.69 120.44C270.69 117.76 268.791 115.588 266.449 115.588C264.107 115.588 262.208 117.76 262.208 120.44C262.208 123.12 264.107 125.292 266.449 125.292Z" fill="#795548"/>
<path d="M265.499 172.07V174.567H262.175L262.451 172.44L265.499 172.07Z" fill="#FDA57D"/>
<path d="M274.64 170.119L274.364 173.461H274.549C275.857 173.461 277.12 172.98 278.098 172.109L279.072 171.24L276.578 168.743L274.64 170.119Z" fill="#FDA57D"/>
<path d="M267.714 154.594L267.99 158.201L272.977 169.296L276.854 167.354L271.87 155.703L271.591 146.829H267.159L267.714 154.594Z" fill="#00A09A"/>
<path opacity="0.05" d="M267.714 154.594L267.99 158.201L272.977 169.296L276.854 167.354L271.87 155.703L271.591 146.829H267.159L267.714 154.594Z" fill="black"/>
<path d="M266.607 134.348L261.899 143.767C261.899 143.767 260.382 147.224 262.008 147.324C264.328 146.92 263.925 146.009 264.228 145.197L267.159 135.172L266.607 134.348Z" fill="#FDA57D"/>
<path d="M265.575 125.374C268.023 125.374 270.007 123.387 270.007 120.935C270.007 118.484 268.023 116.496 265.575 116.496C263.128 116.496 261.143 118.484 261.143 120.935C261.143 123.387 263.128 125.374 265.575 125.374Z" fill="#FDA57D"/>
<path d="M268.545 127.412L265.439 129.035L264.668 123.53H268.545V127.412Z" fill="#FDA57D"/>
<path d="M265.499 143.502C265.499 143.502 262.163 160.698 262.466 170.131H266.619L267.726 156.818L270.76 149.606C270.76 149.606 274.913 148.22 273.529 143.502H265.499Z" fill="#00A09A"/>
<path d="M266.604 169.739H262.451V172.623H266.604V169.739Z" fill="#00A09A"/>
<path opacity="0.05" d="M266.604 169.739H262.451V172.623H266.604V169.739Z" fill="white"/>
<path d="M272.865 169.038L274.018 171.255L277.685 169.32L276.706 167.042L272.865 169.038Z" fill="#00A09A"/>
<path d="M263.182 173.807L257.967 174.889C257.743 174.956 257.546 175.094 257.406 175.283C257.266 175.471 257.19 175.699 257.19 175.934C257.19 176.08 257.22 176.225 257.277 176.36C257.334 176.495 257.417 176.617 257.522 176.718C257.627 176.82 257.752 176.9 257.888 176.952C258.024 177.005 258.17 177.03 258.316 177.025L264.444 176.821C264.726 176.812 264.994 176.693 265.19 176.489C265.387 176.286 265.497 176.014 265.496 175.731V174.552C265.496 173.944 265.615 173.765 265.014 173.765H263.497C263.391 173.763 263.284 173.778 263.182 173.807Z" fill="#333333"/>
<path d="M268.569 126.003L264.656 129.086C264.216 129.428 263.854 129.859 263.592 130.352C263.331 130.844 263.177 131.386 263.139 131.942C263.073 133.127 263.561 134.488 265.776 135.181C265.776 135.181 264.944 144.058 263.561 144.599H274.085C274.085 144.599 273.378 140.488 273.014 136.001C272.589 130.824 272.283 126.449 268.569 126.003Z" fill="#EEEEEE"/>
<path d="M268.545 131.575L271.039 136.013L270.748 145.997C270.748 145.997 269.364 148.214 270.472 148.494C271.579 148.773 273.241 147.938 272.965 146.276V134.901C272.965 134.901 272.134 130.186 271.303 129.077L268.545 131.575Z" fill="#FDA57D"/>
<path d="M276.511 171.638L272.398 174.558C272.221 174.712 272.098 174.919 272.048 175.148C271.997 175.377 272.022 175.617 272.119 175.831C272.179 175.964 272.265 176.085 272.372 176.184C272.479 176.284 272.606 176.36 272.743 176.41C272.881 176.46 273.027 176.481 273.173 176.473C273.319 176.465 273.462 176.427 273.593 176.362L279.096 173.652C279.35 173.528 279.545 173.309 279.641 173.042C279.737 172.776 279.725 172.483 279.609 172.225L279.123 171.149C278.875 170.599 278.577 170.481 278.028 170.73L276.511 171.641C276.414 171.681 276.59 171.568 276.511 171.638Z" fill="#333333"/>
<path d="M270.775 117.548L269.771 118.046L269.064 116.818L270.056 116.287L270.775 117.548Z" fill="#795548"/>
<path d="M270.056 116.29C270.056 116.29 276.705 109.272 275.325 126.316C274.182 123.217 272.653 120.275 270.775 117.56L270.056 116.29Z" fill="#795548"/>
<path d="M266.852 124.687C268.972 124.687 270.69 122.786 270.69 120.44C270.69 118.094 268.972 116.193 266.852 116.193C264.733 116.193 263.015 118.094 263.015 120.44C263.015 122.786 264.733 124.687 266.852 124.687Z" fill="#795548"/>
<path d="M264.48 119.024C265.735 119.024 266.752 118.39 266.752 117.608C266.752 116.826 265.735 116.193 264.48 116.193C263.225 116.193 262.208 116.826 262.208 117.608C262.208 118.39 263.225 119.024 264.48 119.024Z" fill="#795548"/>
<g opacity="0.5">
<path opacity="0.5" d="M135.246 122.536C134.788 121.16 132.064 123.019 132.064 123.019L131.84 123.323L126.986 129.876L115.143 123.241V120.27C115.701 120.207 116.241 120.032 116.728 119.753C117.216 119.474 117.642 119.098 117.979 118.649C118.317 118.199 118.559 117.685 118.691 117.139C118.823 116.592 118.842 116.024 118.747 115.47C119.335 115.181 119.853 114.766 120.263 114.254C120.676 113.814 121.119 113.282 121.076 112.696C121.084 112.602 121.078 112.508 121.061 112.416C120.993 112.173 120.864 111.952 120.687 111.772C120.51 111.593 120.29 111.461 120.048 111.389C119.565 111.25 119.072 111.148 118.574 111.086C117.4 110.855 116.338 110.241 115.191 109.892C114.671 109.734 114.135 109.632 113.593 109.588C113.205 109.533 112.809 109.577 112.443 109.715C112.072 109.93 111.739 110.204 111.457 110.527C111.078 110.88 110.641 111.164 110.165 111.368C109.455 111.672 108.648 111.793 108.017 112.222C107.839 112.329 107.69 112.478 107.583 112.656C107.491 112.845 107.452 113.055 107.468 113.264C107.465 113.451 107.479 113.638 107.51 113.823C107.576 114.618 107.793 115.394 108.15 116.108C108.505 116.654 108.941 117.144 109.443 117.56L110.52 118.547C110.729 118.776 110.98 118.963 111.26 119.097C111.259 119.021 111.274 118.947 111.302 118.877C111.331 118.807 111.373 118.743 111.427 118.69L111.078 121.12C110.428 120.923 109.754 120.821 109.076 120.817C108.166 120.817 107.234 120.972 106.831 121.597C106.808 121.635 106.787 121.675 106.77 121.716C105.508 123.217 102.614 128.078 104.316 139.881C104.17 141.324 104.082 142.238 104.082 142.238V142.384V142.494L104.101 142.509L105.047 155.542L103.227 168.387H103.633V169.815H103.175V172.109C103.175 172.109 109.546 171.702 110.504 170.286C111.308 169.101 107.307 169.566 105.924 169.761V168.904H105.948V168.421H106.43L108.25 159.704C110.134 156.442 109.161 148.287 109.161 148.287L111.451 149.664L113.271 159.246L111.936 173.461H112.343V174.455H111.809V176.748C111.809 176.748 118.179 176.341 119.138 174.925C119.939 173.741 115.944 174.205 114.557 174.4L114.403 173.488H114.682L116.502 160.643C117.412 157.165 116.174 146.95 116.01 145.644L118.283 130.621L118.249 130.578L118.283 130.365L127.444 133.577C127.444 133.577 128.354 134.488 129.301 131.754C130.18 129.205 132.595 125.787 132.907 125.353L132.941 125.307C132.941 125.307 135.704 123.912 135.246 122.536Z" fill="url(#paint4_linear)"/>
</g>
<path d="M104.049 167.303V169.536H106.279V166.41L104.049 167.303Z" fill="#FDA57D"/>
<path d="M112.525 171.772V174.451L114.755 174.005L114.309 171.325L112.525 171.772Z" fill="#FDA57D"/>
<path d="M107.641 121.762C107.641 121.762 102.314 125.757 104.941 141.394L107.641 121.762Z" fill="#00A09A"/>
<path opacity="0.05" d="M107.641 121.762C107.641 121.762 102.314 125.757 104.941 141.394L107.641 121.762Z" fill="black"/>
<path opacity="0.05" d="M114.557 173.136L114.333 171.796L112.549 172.243V173.136H114.557Z" fill="black"/>
<path opacity="0.05" d="M104.073 168.223H106.303V166.88L104.073 167.774V168.223Z" fill="black"/>
<path d="M111.681 119.106L111.236 122.232L115.249 124.468V119.999L111.681 119.106Z" fill="#FDA57D"/>
<path d="M103.652 167.752L105.435 155.232L104.507 142.287L116.104 145.413C116.104 145.413 117.542 156.533 116.599 160.154L114.815 172.662H112.14L113.477 158.814L111.694 149.481L109.464 148.141C109.464 148.141 110.404 156.083 108.572 159.261L106.788 167.749L103.652 167.752Z" fill="#EEEEEE"/>
<path d="M134.828 123.077C134.382 121.737 131.73 123.548 131.73 123.548L131.512 123.852L132.565 125.811L132.598 125.766C132.598 125.766 135.274 124.417 134.828 123.077Z" fill="#FDA57D"/>
<path opacity="0.05" d="M111.633 121.986C111.633 121.986 108.065 121.044 107.174 122.433C106.282 123.821 104.507 142.536 104.507 142.536C104.507 142.536 109.81 147.002 116.104 145.662L118.322 130.927L111.633 121.986Z" fill="black"/>
<path d="M126.798 130.226L112.698 122.327C111.678 121.75 110.532 121.436 109.361 121.415C108.469 121.415 107.565 121.567 107.177 122.175C106.285 123.563 104.501 142.278 104.501 142.278C104.501 142.278 109.804 146.744 116.098 145.404L118.328 130.663L127.259 133.798C127.259 133.798 128.151 134.692 129.079 132.036C129.935 129.554 132.286 126.228 132.589 125.802L131.506 123.846L126.798 130.226Z" fill="#00A09A"/>
<path opacity="0.05" d="M111.621 119.802C111.996 120.282 112.475 120.67 113.022 120.937C113.569 121.204 114.17 121.343 114.779 121.342C114.928 121.342 115.077 121.334 115.225 121.318V120.446L111.657 119.553L111.621 119.802Z" fill="black"/>
<path d="M114.803 120.893C117.02 120.893 118.816 119.093 118.816 116.873C118.816 114.653 117.02 112.854 114.803 112.854C112.586 112.854 110.79 114.653 110.79 116.873C110.79 119.093 112.586 120.893 114.803 120.893Z" fill="#FDA57D"/>
<path d="M103.597 169.141V171.374C103.597 171.374 109.792 170.976 110.735 169.587C111.678 168.199 105.83 169.141 105.83 169.141H103.597Z" fill="#333333"/>
<path d="M112.003 173.634V175.867C112.003 175.867 118.198 175.469 119.141 174.081C120.085 172.692 114.236 173.634 114.236 173.634H112.003Z" fill="#333333"/>
<path opacity="0.05" d="M112.258 118.717L113.826 116.469C114.041 116.125 114.31 115.817 114.621 115.558C114.778 115.428 114.964 115.338 115.162 115.294C115.361 115.249 115.567 115.252 115.765 115.302C115.992 115.395 116.203 115.523 116.39 115.682C116.975 116.111 117.697 116.427 118.41 116.29C119.123 116.153 119.73 115.573 120.248 115.017C120.679 114.558 121.143 113.996 121.025 113.376C120.956 113.143 120.829 112.931 120.657 112.76C120.484 112.588 120.272 112.463 120.039 112.395C119.569 112.256 119.09 112.155 118.604 112.091C117.46 111.866 116.426 111.268 115.31 110.931C114.803 110.775 114.281 110.673 113.753 110.627C113.376 110.573 112.991 110.616 112.634 110.751C112.274 110.961 111.95 111.228 111.675 111.541C111.306 111.885 110.88 112.163 110.416 112.362C109.725 112.665 108.954 112.778 108.326 113.191C108.154 113.294 108.009 113.438 107.905 113.61C107.776 113.926 107.75 114.275 107.832 114.607C107.896 115.381 108.108 116.136 108.457 116.831C108.802 117.362 109.225 117.839 109.713 118.243L110.759 119.206C110.963 119.429 111.209 119.611 111.481 119.741C111.436 119.407 112.061 119 112.258 118.717Z" fill="black"/>
<path d="M112.258 118.568L113.826 116.32C114.041 115.976 114.31 115.669 114.621 115.409C114.778 115.279 114.964 115.189 115.162 115.145C115.361 115.1 115.567 115.103 115.765 115.154C115.992 115.246 116.203 115.375 116.39 115.533C116.975 115.962 117.697 116.278 118.41 116.141C119.123 116.004 119.73 115.424 120.248 114.868C120.679 114.409 121.143 113.847 121.025 113.227C120.958 112.991 120.833 112.775 120.66 112.601C120.488 112.426 120.274 112.298 120.039 112.228C119.569 112.089 119.09 111.988 118.604 111.924C117.46 111.699 116.426 111.101 115.31 110.764C114.803 110.607 114.281 110.506 113.753 110.46C113.376 110.406 112.991 110.449 112.634 110.584C112.274 110.794 111.95 111.061 111.675 111.374C111.306 111.718 110.88 111.996 110.416 112.195C109.725 112.498 108.954 112.611 108.326 113.024C108.153 113.128 108.009 113.273 107.905 113.446C107.776 113.762 107.75 114.111 107.832 114.443C107.896 115.217 108.108 115.972 108.457 116.667C108.802 117.198 109.225 117.675 109.713 118.079L110.759 119.042C110.963 119.265 111.209 119.447 111.481 119.577C111.436 119.258 112.061 118.851 112.258 118.568Z" fill="#333333"/>
</g>
<defs>
<linearGradient id="paint0_linear" x1="60.5261" y1="38.7815" x2="60.5261" y2="-1.34956e-05" gradientUnits="userSpaceOnUse">
<stop stop-color="#808080" stop-opacity="0.25"/>
<stop offset="0.54" stop-color="#808080" stop-opacity="0.12"/>
<stop offset="1" stop-color="#808080" stop-opacity="0.1"/>
</linearGradient>
<linearGradient id="paint1_linear" x1="511.158" y1="83.0739" x2="511.158" y2="82.9054" gradientUnits="userSpaceOnUse">
<stop stop-color="#808080" stop-opacity="0.25"/>
<stop offset="0.54" stop-color="#808080" stop-opacity="0.12"/>
<stop offset="1" stop-color="#808080" stop-opacity="0.1"/>
</linearGradient>
<linearGradient id="paint2_linear" x1="120415" y1="49350.7" x2="120415" y2="9271.46" gradientUnits="userSpaceOnUse">
<stop stop-color="#808080" stop-opacity="0.25"/>
<stop offset="0.54" stop-color="#808080" stop-opacity="0.12"/>
<stop offset="1" stop-color="#808080" stop-opacity="0.1"/>
</linearGradient>
<linearGradient id="paint3_linear" x1="23978.3" y1="48021.2" x2="23978.3" y2="34337.3" gradientUnits="userSpaceOnUse">
<stop stop-color="#808080" stop-opacity="0.25"/>
<stop offset="0.54" stop-color="#808080" stop-opacity="0.12"/>
<stop offset="1" stop-color="#808080" stop-opacity="0.1"/>
</linearGradient>
<linearGradient id="paint4_linear" x1="15445.8" y1="42320.3" x2="18846.5" y2="42320.3" gradientUnits="userSpaceOnUse">
<stop stop-color="#808080" stop-opacity="0.25"/>
<stop offset="0.54" stop-color="#808080" stop-opacity="0.12"/>
<stop offset="1" stop-color="#808080" stop-opacity="0.1"/>
</linearGradient>
<clipPath id="clip0">
<rect width="280" height="178" fill="white"/>
</clipPath>
</defs>
</svg>
