<svg width="280" height="213" viewBox="0 0 280 213" fill="none" xmlns="http://www.w3.org/2000/svg">
<g clip-path="url(#clip0)">
<path d="M240.622 84.9088C228.315 36.4364 185.792 1.44614 135.879 0.0427135C109.491 -0.699238 81.7238 8.06679 61.5073 38.7423C25.3682 93.5782 63.7282 131.471 90.4718 149.478C103.392 158.194 115.034 168.675 125.061 180.617C143.125 202.089 177.877 228.77 219.265 186.964C249.263 156.663 248.819 117.196 240.622 84.9088Z" fill="#F2F2F2"/>
<path opacity="0.1" d="M185.191 130.795L210.515 105.507L185.191 80.2188L192.912 72.5113L225.956 105.507L192.912 138.502L185.191 130.795Z" fill="black"/>
<path opacity="0.1" d="M112.875 107.311H123.169V97.0001H112.875V107.311ZM164.551 97.0001H154.257V107.311H164.551V97.0001ZM133.566 107.311H143.86V97.0001H133.566V107.311Z" fill="black"/>
<path opacity="0.1" d="M98.9265 130.537L73.5772 105.249L98.9007 79.9611L91.1801 72.2535L58.1618 105.249L91.2059 138.245L98.9265 130.537Z" fill="black"/>
<path d="M280 193.924C280 198.195 217.32 213 140 213C62.6801 213 0 198.195 0 193.924C0 189.653 62.6801 197.533 140 197.533C217.32 197.533 280 189.653 280 193.924Z" fill="#3F3D56"/>
<path d="M280 193.924C280 198.195 217.32 213 140 213C62.6801 213 0 198.195 0 193.924C0 189.653 62.6801 197.533 140 197.533C217.32 197.533 280 189.653 280 193.924Z" fill="#003F3C"/>
<path d="M140 201.658C217.32 201.658 280 198.195 280 193.924C280 189.653 217.32 186.191 140 186.191C62.6801 186.191 0 189.653 0 193.924C0 198.195 62.6801 201.658 140 201.658Z" fill="#017D79"/>
<path d="M162.826 156.717C162.826 173.219 173.162 186.572 185.934 186.572L162.826 156.717Z" fill="#314A49"/>
<path d="M185.934 186.572C185.934 169.884 197.468 156.381 211.721 156.381L185.934 186.572Z" fill="#048984"/>
<path d="M171.199 158.213C171.199 173.888 177.789 186.572 185.934 186.572L171.199 158.213Z" fill="#048984"/>
<path d="M185.934 186.572C185.934 165.249 199.265 147.995 215.74 147.995L185.934 186.572Z" fill="#314A49"/>
<path d="M181.073 186.782C181.073 186.782 184.35 186.681 185.338 185.977C186.325 185.272 190.378 184.431 190.623 185.561C190.868 186.691 195.548 191.18 191.849 191.21C188.149 191.24 183.252 190.632 182.266 190.031C181.28 189.43 181.073 186.782 181.073 186.782Z" fill="#A8A8A8"/>
<path opacity="0.2" d="M191.915 190.817C188.215 190.846 183.318 190.239 182.332 189.638C181.581 189.18 181.282 187.536 181.182 186.778C181.113 186.781 181.073 186.782 181.073 186.782C181.073 186.782 181.28 189.43 182.266 190.031C183.252 190.633 188.149 191.24 191.849 191.21C192.917 191.201 193.285 190.821 193.265 190.257C193.117 190.597 192.709 190.81 191.915 190.817Z" fill="black"/>
<path d="M222.747 98.6908C222.747 98.6908 214.824 92.665 214.223 94.8739C213.621 97.0827 220.036 102.103 220.036 102.103L222.747 98.6908Z" fill="#FFB9B9"/>
<path opacity="0.1" d="M222.747 98.6908C222.747 98.6908 214.824 92.665 214.223 94.8739C213.621 97.0827 220.036 102.103 220.036 102.103L222.747 98.6908Z" fill="black"/>
<path d="M248.905 79.6126C248.905 79.6126 239.482 96.4803 239.282 98.89C239.081 101.3 239.081 101.5 238.28 101.3C237.478 101.099 226.451 99.894 225.449 100.296C224.447 100.697 222.442 97.886 222.442 97.886C222.442 97.886 218.633 101.701 219.435 102.505C220.237 103.308 222.642 103.709 223.043 104.713C223.444 105.717 224.046 106.721 225.85 106.521C227.654 106.32 239.883 109.734 241.487 109.131C243.091 108.529 243.492 107.525 244.294 107.525C245.096 107.525 246.699 106.721 246.699 106.521C246.699 106.32 252.313 95.6771 252.313 95.6771C252.313 95.6771 258.928 81.2191 248.905 79.6126Z" fill="#D0CDE1"/>
<path opacity="0.1" d="M248.905 79.6126C248.905 79.6126 239.482 96.4803 239.282 98.89C239.081 101.3 239.081 101.5 238.28 101.3C237.478 101.099 226.451 99.894 225.449 100.296C224.447 100.697 222.442 97.886 222.442 97.886C222.442 97.886 218.633 101.701 219.435 102.505C220.237 103.308 222.642 103.709 223.043 104.713C223.444 105.717 224.046 106.721 225.85 106.521C227.654 106.32 239.883 109.734 241.487 109.131C243.091 108.529 243.492 107.525 244.294 107.525C245.096 107.525 246.699 106.721 246.699 106.521C246.699 106.32 252.313 95.6771 252.313 95.6771C252.313 95.6771 258.928 81.2191 248.905 79.6126Z" fill="black"/>
<path d="M235.234 68.4925C235.149 69.5589 235.166 70.631 235.286 71.6941C235.59 74.0012 236.651 76.406 235.649 78.5596C235.285 79.3412 234.67 80.0223 234.334 80.8134C233.624 82.488 234.268 84.3454 234.171 86.1277C234.047 88.4301 232.585 90.6486 230.361 91.9103C234.16 92.0285 237.773 90.1469 240.164 87.5828C242.555 85.0188 243.886 81.8384 244.884 78.6565C245.397 77.1622 245.726 75.6107 245.864 74.0366C245.943 73.1322 245.837 72.2212 245.552 71.3593C245.201 70.5173 244.739 69.7264 244.178 69.0076C243.579 68.1645 242.964 67.3049 242.081 66.6776C240.993 65.9051 238.895 65.1293 237.452 65.2418C235.682 65.3797 235.309 67.262 235.234 68.4925Z" fill="#2F2E41"/>
<path d="M241.086 74.7932C241.086 74.7932 243.291 82.6247 241.487 84.8335C239.683 87.0424 252.313 83.8295 252.313 83.8295C252.313 83.8295 246.098 77.6045 249.105 73.5884L241.086 74.7932Z" fill="#FFB9B9"/>
<path opacity="0.1" d="M241.086 74.7932C241.086 74.7932 243.291 82.6247 241.487 84.8335C239.683 87.0424 252.313 83.8295 252.313 83.8295C252.313 83.8295 246.098 77.6045 249.105 73.5884L241.086 74.7932Z" fill="black"/>
<path d="M185.191 125.897L210.515 100.609L185.191 75.3211L192.912 67.6135L225.956 100.609L192.912 133.605L185.191 125.897Z" fill="#048984"/>
<path d="M233.869 179.212V185.036L236.876 188.65L239.482 187.445L238.68 179.012L233.869 179.212Z" fill="#FFB9B9"/>
<path d="M235.072 184.634C235.072 184.634 234.27 181.823 232.867 183.831C231.463 185.839 230.06 190.257 229.258 190.457C228.456 190.658 222.843 196.883 228.456 196.883C234.069 196.883 235.874 194.273 235.874 194.273C235.874 194.273 241.487 192.064 241.487 191.662C241.487 191.261 240.685 183.831 240.284 183.831C239.883 183.831 239.683 185.237 238.68 185.237C237.678 185.237 235.072 184.634 235.072 184.634Z" fill="#2F2E41"/>
<path d="M247.301 180.216L247.101 185.638L251.912 187.646V179.815L247.301 180.216Z" fill="#FFB9B9"/>
<path d="M252.513 185.638C252.513 185.638 249.907 182.827 248.504 183.429C247.81 183.709 247.139 184.045 246.499 184.433C246.499 184.433 245.697 187.044 245.296 189.253C244.895 191.462 244.695 192.466 244.294 193.269C243.893 194.072 243.492 197.084 247.501 197.486C251.511 197.887 252.714 195.678 252.714 195.678L253.716 190.457C253.716 190.457 253.315 185.638 252.513 185.638Z" fill="#2F2E41"/>
<path d="M236.475 122.384C236.475 122.384 230.661 135.437 231.463 147.284C231.463 147.284 229.459 151.903 230.661 159.132C231.864 166.361 233.468 180.819 233.468 180.819C233.468 180.819 238.881 181.421 239.282 180.417C239.282 180.417 239.683 170.377 240.084 169.975C240.485 169.574 239.883 160.337 239.282 158.529C238.68 156.722 244.895 138.85 244.895 138.85L243.291 116.561L236.475 122.384Z" fill="#2F2E41"/>
<path opacity="0.1" d="M236.475 122.384C236.475 122.384 230.661 135.437 231.463 147.284C231.463 147.284 229.459 151.903 230.661 159.132C231.864 166.361 233.468 180.819 233.468 180.819C233.468 180.819 238.881 181.421 239.282 180.417C239.282 180.417 239.683 170.377 240.084 169.975C240.485 169.574 239.883 160.337 239.282 158.529C238.68 156.722 244.895 138.85 244.895 138.85L243.291 116.561L236.475 122.384Z" fill="black"/>
<path d="M234.871 121.581L238.68 129.814C238.68 129.814 240.485 148.489 241.487 150.899C241.487 150.899 241.888 157.726 243.692 159.935C245.497 162.144 246.9 181.622 246.9 181.622C246.9 181.622 251.912 183.028 252.313 181.622C252.714 180.216 253.917 170.578 253.917 170.578C253.917 170.578 254.318 162.345 252.112 156.923C249.907 151.501 254.718 132.023 254.718 132.023C254.718 132.023 259.73 122.585 252.513 114.954L234.871 121.581Z" fill="#2F2E41"/>
<path d="M245.497 77.2029C250.036 77.2029 253.716 73.5169 253.716 68.9699C253.716 64.4229 250.036 60.7368 245.497 60.7368C240.957 60.7368 237.277 64.4229 237.277 68.9699C237.277 73.5169 240.957 77.2029 245.497 77.2029Z" fill="#FFB9B9"/>
<path d="M253.115 81.4198C253.115 81.4198 244.494 81.4198 243.291 82.4239C242.994 82.7073 242.599 82.8654 242.189 82.8654C241.778 82.8654 241.384 82.7073 241.086 82.4239C241.086 82.4239 238.079 82.6247 237.277 85.0343C236.475 87.444 234.07 90.6569 234.07 90.6569C234.07 90.6569 230.461 93.2674 232.466 100.095C234.47 106.922 232.867 117.967 232.867 117.967C232.867 117.967 231.263 120.376 232.867 121.38C234.471 122.384 235.072 122.786 234.871 123.589C234.671 124.392 253.115 116.962 253.115 115.557C253.115 114.151 252.714 112.946 253.115 112.344C253.516 111.742 253.917 110.738 253.516 109.733C253.115 108.729 253.917 108.529 253.716 107.525C253.516 106.521 254.719 99.0908 255.52 95.8779C256.322 92.665 256.122 81.6207 253.115 81.4198Z" fill="#50BDB9"/>
<path d="M222.747 101.101C222.747 101.101 214.824 95.0747 214.223 97.2835C213.621 99.4924 220.036 104.513 220.036 104.513L222.747 101.101Z" fill="#FFB9B9"/>
<path d="M248.905 82.4239C248.905 82.4239 239.482 99.2916 239.282 101.701C239.081 104.111 239.081 104.312 238.28 104.111C237.478 103.91 226.451 102.705 225.449 103.107C224.447 103.508 222.442 100.697 222.442 100.697C222.442 100.697 218.633 104.513 219.435 105.316C220.237 106.119 222.642 106.521 223.043 107.525C223.444 108.529 224.046 109.533 225.85 109.332C227.654 109.131 239.883 112.545 241.487 111.942C243.091 111.34 243.492 110.336 244.294 110.336C245.096 110.336 246.699 109.533 246.699 109.332C246.699 109.131 252.313 98.4883 252.313 98.4883C252.313 98.4883 258.928 84.0303 248.905 82.4239Z" fill="#50BDB9"/>
<path d="M241.426 74.2299C241.313 73.4145 240.896 72.6748 240.682 71.8798C240.514 71.2435 240.477 70.5799 240.572 69.9289C240.668 69.2779 240.894 68.6529 241.236 68.0916C242.415 66.1842 244.73 65.3395 246.344 63.7845C246.378 64.5766 246.926 65.2535 247.533 65.7629C248.139 66.2722 248.835 66.6855 249.348 67.2887C249.842 67.9252 250.201 68.6551 250.406 69.4344C250.722 70.3373 250.864 71.2924 250.824 72.2485C250.801 72.7263 250.681 73.1943 250.471 73.6243C250.262 74.0542 249.968 74.437 249.606 74.7495C249.005 75.2254 248.165 75.4973 247.874 76.2076C247.76 76.5626 247.727 76.9388 247.778 77.3083C247.915 79.5176 248.044 81.7662 247.525 83.9177C247.005 86.0693 245.733 88.148 243.739 89.1018C245.377 89.2182 247.051 89.3318 248.641 88.9174C250.231 88.503 251.751 87.4596 252.3 85.9083C252.57 85.1429 252.596 84.2918 252.98 83.577C253.952 81.7678 256.638 81.6853 257.957 80.1117C258.485 79.482 258.74 78.6706 258.93 77.8704C260.044 73.1622 259.261 68.1629 257.565 63.6322C256.981 62.0705 256.253 60.4982 255 59.4006C253.933 58.4667 252.57 57.9521 251.223 57.5126C249.257 56.8712 247.232 56.3457 245.165 56.278C244.267 56.2252 243.367 56.3304 242.506 56.589C241.655 56.8967 240.864 57.3483 240.166 57.9241C236.929 60.4472 234.725 64.4798 235.017 68.578C235.194 71.0577 236.243 73.4045 237.591 75.4923C238.062 76.2225 239.175 77.7794 240.21 77.3203C241.149 76.9039 241.55 75.1105 241.426 74.2299Z" fill="#2F2E41"/>
<path d="M112.875 102.413H123.169V92.1023H112.875V102.413ZM164.551 92.1023H154.257V102.413H164.551V92.1023ZM133.566 102.413H143.86V92.1023H133.566V102.413Z" fill="#048984"/>
<path d="M53.0677 61.3746C57.8514 61.3746 61.7294 58.3447 61.7294 54.6073C61.7294 50.8698 57.8514 47.84 53.0677 47.84C48.284 47.84 44.406 50.8698 44.406 54.6073C44.406 58.3447 48.284 61.3746 53.0677 61.3746Z" fill="#2F2E41"/>
<path d="M54.5402 101.197C54.5402 101.197 62.3357 101.718 63.7216 100.677C65.1075 99.6357 70.9974 102.065 71.5171 103.453C72.0368 104.841 63.2019 105.015 61.816 105.015C60.4301 105.015 53.8472 107.097 53.8472 107.097L54.5402 101.197Z" fill="#A0616A"/>
<path d="M38.4877 182.027C38.4877 182.027 34.8547 191.203 36.7502 192.311C38.6457 193.418 58.5484 192.627 58.5484 192.627C58.5484 192.627 61.8655 190.57 58.0745 189.146C58.0745 189.146 54.9154 188.988 52.8619 187.723C50.8084 186.457 48.4391 184.083 48.4391 184.083C48.4391 184.083 48.2811 180.603 47.0175 181.394C46.6394 181.643 46.3176 181.969 46.0728 182.351C45.8279 182.732 45.6655 183.161 45.5958 183.609L38.4877 182.027Z" fill="#2F2E41"/>
<path opacity="0.1" d="M38.4877 182.027C38.4877 182.027 34.8547 191.203 36.7502 192.311C38.6457 193.418 58.5484 192.627 58.5484 192.627C58.5484 192.627 61.8655 190.57 58.0745 189.146C58.0745 189.146 54.9154 188.988 52.8619 187.723C50.8084 186.457 48.4391 184.083 48.4391 184.083C48.4391 184.083 48.2811 180.603 47.0175 181.394C46.6394 181.643 46.3176 181.969 46.0728 182.351C45.8279 182.732 45.6655 183.161 45.5958 183.609L38.4877 182.027Z" fill="black"/>
<path d="M98.9265 125.639L73.5772 100.351L98.9007 75.0633L91.1801 67.3557L58.1618 100.351L91.2059 133.347L98.9265 125.639Z" fill="#048984"/>
<path d="M32.8859 184.834C32.8859 184.834 28.9015 194.898 30.9803 196.113C33.0592 197.327 54.8866 196.46 54.8866 196.46C54.8866 196.46 58.5246 194.204 54.3669 192.642C54.3669 192.642 50.9023 192.469 48.6502 191.081C46.3982 189.693 43.7997 187.09 43.7997 187.09C43.7997 187.09 43.6264 183.272 42.2406 184.14C41.8259 184.414 41.473 184.771 41.2045 185.189C40.936 185.608 40.7578 186.078 40.6815 186.569L32.8859 184.834Z" fill="#2F2E41"/>
<path d="M53.3275 120.979L50.9023 142.842C50.9023 142.842 50.0361 153.253 47.4376 155.509C47.4376 155.509 47.4376 158.806 46.5714 159.847L45.3588 173.555C45.3588 173.555 47.0911 178.587 46.9179 179.455C46.7446 180.322 47.6108 183.099 47.4376 183.446C47.2643 183.793 39.1223 183.446 39.1223 183.446L40.8547 155.509L46.2249 116.641L53.3275 120.979Z" fill="#2F2E41"/>
<path opacity="0.1" d="M53.3275 120.979L50.9023 142.842C50.9023 142.842 50.0361 153.253 47.4376 155.509C47.4376 155.509 47.4376 158.806 46.5714 159.847L45.3588 173.555C45.3588 173.555 47.0911 178.587 46.9179 179.455C46.7446 180.322 47.6108 183.099 47.4376 183.446C47.2643 183.793 39.1223 183.446 39.1223 183.446L40.8547 155.509L46.2249 116.641L53.3275 120.979Z" fill="black"/>
<path d="M48.9967 120.285C48.9967 120.285 47.0911 138.157 46.225 141.975C45.6804 144.489 45.3328 147.041 45.1855 149.609C45.1855 149.609 45.0123 155.162 43.4532 156.724C42.997 157.176 42.6386 157.718 42.4002 158.315C42.1618 158.912 42.0485 159.551 42.0673 160.194C42.0673 160.194 40.5082 177.72 41.3744 179.802C42.2406 181.884 43.1067 183.619 42.2406 185.007C41.3744 186.396 31.8465 186.396 31.8465 185.355C31.8465 184.313 31.8465 183.446 31.3268 182.925C30.8071 182.405 31.3268 179.108 31.3268 179.108C31.3268 179.108 29.248 163.665 31.1536 159.153C33.0592 154.642 33.9253 142.322 33.9253 142.322C33.9253 142.322 32.5395 128.267 30.8071 126.011C29.0748 123.755 31.1536 115.773 31.1536 115.773L48.9967 120.285Z" fill="#2F2E41"/>
<path d="M44.1195 64.7826C44.3209 65.2422 44.8029 65.498 45.2418 65.7402C47.7852 67.1437 49.9142 69.1786 52.0117 71.19C51.4883 69.4134 51.5998 67.5096 52.3271 65.8065C52.5775 65.2256 52.9057 64.6012 52.7267 63.9944C52.5951 63.5482 52.2157 63.2263 51.8483 62.9416C50.9924 62.2786 50.0978 61.6673 49.1693 61.1109C48.5207 60.7222 47.1871 59.6874 46.4428 59.8C46.4037 60.8074 46.3833 61.708 45.9429 62.6495C45.8384 62.8728 44.1965 64.9583 44.1195 64.7826Z" fill="#A0616A"/>
<path d="M52.9811 67.0139C56.9037 67.0139 60.0837 63.8288 60.0837 59.8996C60.0837 55.9705 56.9037 52.7853 52.9811 52.7853C49.0584 52.7853 45.8785 55.9705 45.8785 59.8996C45.8785 63.8288 49.0584 67.0139 52.9811 67.0139Z" fill="#A0616A"/>
<path d="M53.3275 76.7311C53.3275 76.7311 54.5402 70.6579 51.0755 68.5756C47.6108 66.4934 43.6264 64.0641 43.6264 64.0641C43.6264 64.0641 42.4138 63.8906 41.8941 66.4934C41.8941 66.4934 32.0197 68.4021 30.9803 77.7722C29.9409 87.1423 31.6733 100.85 31.6733 100.85C31.6733 100.85 30.1142 112.823 28.2086 119.243C28.2086 119.243 26.6495 120.632 33.5788 118.549C40.5082 116.467 52.6346 124.449 52.6346 124.449C52.6346 124.449 53.8472 123.234 53.8472 122.367C53.8472 121.499 55.2331 116.467 55.2331 116.467C55.2331 116.467 56.4457 95.1242 56.9654 92.6949C57.4851 90.2656 54.8866 77.0781 53.3275 76.7311Z" fill="#004745"/>
<path d="M51.3072 60.6325C51.7339 60.3956 52.2124 60.268 52.7002 60.2609C53.1885 60.2536 53.6654 60.1113 54.0781 59.8497C54.749 59.3337 54.7983 58.3367 55.2891 57.6467C55.9997 56.6477 57.4173 56.5275 58.6408 56.5775C59.3892 56.608 60.1951 56.6528 60.8253 56.2473C61.4723 55.8311 61.7656 55.0469 61.9837 54.3084C62.2417 53.435 62.4085 52.3669 61.7693 51.7192C61.3254 51.2694 60.6247 51.1804 60.1316 50.7854C59.6203 50.3758 59.4099 49.7093 59.1319 49.1155C58.8157 48.3921 58.3154 47.7644 57.6811 47.2953C56.7509 46.6479 55.5627 46.5027 54.4301 46.5148C53.2974 46.527 52.1599 46.6762 51.0358 46.5369C50.1147 46.4229 49.1963 46.116 48.2783 46.252C47.1084 46.4253 46.1405 47.3094 45.5641 48.3437C44.9877 49.378 44.7403 50.5586 44.5005 51.7185L43.8482 54.8732C43.6458 55.8517 43.4427 56.8562 43.5989 57.8431C43.9226 59.8889 45.729 61.5151 45.8534 63.5828C45.9721 63.0118 46.2303 62.4793 46.6051 62.033C46.9798 61.5866 47.4593 61.2404 48.0005 61.0255C48.1362 60.959 48.2903 60.9403 48.438 60.9723C48.6174 61.0298 48.7223 61.2093 48.8356 61.3602C49.1323 61.7553 50.0645 62.3548 50.5929 62.0745C51.0657 61.8237 50.7128 61.0363 51.3072 60.6325Z" fill="#2F2E41"/>
<path d="M33.4056 93.0419C33.4056 93.0419 32.193 100.677 37.2168 99.9827C37.2168 99.9827 39.8153 99.6357 40.1617 99.9827C40.5082 100.33 53.3275 98.074 55.0599 96.1653C55.0599 96.1653 57.1387 95.4712 58.1781 96.5124C59.2175 97.5535 69.6115 98.5946 66.4933 95.4712C63.3751 92.3479 58.5245 91.6538 58.5245 91.6538L51.9416 92.0008C51.9416 92.0008 48.477 93.042 46.3982 92.0008C44.3194 90.9597 38.4294 91.3068 38.4294 91.3068L33.4056 93.0419Z" fill="#A0616A"/>
<path d="M40.5082 68.9227C40.5082 68.9227 32.7127 69.7903 32.7127 81.0691V95.4712C32.7127 95.4712 37.0435 93.5625 37.9097 93.736C38.7759 93.9095 42.2405 91.4803 42.2405 91.4803C42.2405 91.4803 46.2249 82.1102 45.8785 79.5074C45.532 76.9046 45.7052 69.2697 40.5082 68.9227Z" fill="#004745"/>
<path d="M52.9811 58.9453C56.6645 58.9453 59.6506 57.3915 59.6506 55.4749C59.6506 53.5582 56.6645 52.0045 52.9811 52.0045C49.2976 52.0045 46.3116 53.5582 46.3116 55.4749C46.3116 57.3915 49.2976 58.9453 52.9811 58.9453Z" fill="#2F2E41"/>
<path d="M46.7446 61.8951C48.0363 61.8951 49.0833 59.2926 49.0833 56.0822C49.0833 52.8718 48.0363 50.2693 46.7446 50.2693C45.453 50.2693 44.406 52.8718 44.406 56.0822C44.406 59.2926 45.453 61.8951 46.7446 61.8951Z" fill="#2F2E41"/>
</g>
<defs>
<clipPath id="clip0">
<rect width="280" height="213" fill="white"/>
</clipPath>
</defs>
</svg>
