<svg width="103" height="44" viewBox="0 0 103 44" fill="none" xmlns="http://www.w3.org/2000/svg">
<g clip-path="url(#clip0)">
<g opacity="0.5">
<path opacity="0.5" d="M55.4229 20.2298L34.9026 0H40.2075L58.0762 17.6073L55.4229 20.2298Z" fill="#D3D3D5"/>
</g>
<path d="M44.8282 20.2298L33.2524 8.80035H38.5472L47.4815 17.609L44.8282 20.2298Z" fill="#D3D3D5"/>
<g opacity="0.5">
<path opacity="0.5" d="M47.4783 17.599L29.765 35.1128L24.4956 35.0778L44.8267 14.9782L47.4783 17.599Z" fill="#D3D3D5"/>
</g>
<path d="M58.0761 17.599L31.3491 44H26.0459L55.4228 14.9782L58.0761 17.599Z" fill="#D3D3D5"/>
<path d="M15.5205 29.868H20.6953V30.9781H16.8632V33.9778H21.783V35.0778H15.5205" fill="#D3D3D5"/>
<path d="M15.5205 26.1172H21.5533V27.2139H15.5205" fill="#D3D3D5"/>
<path d="M60.7582 27.2156H57.9529V35.0778H56.6102V27.2156H53.8049V26.1155H60.7582V27.2156Z" fill="#D3D3D5"/>
<path d="M81.02 30.5959C81.013 31.495 80.7368 32.3721 80.2262 33.1163C79.7156 33.8606 78.9935 34.4388 78.151 34.778C77.3084 35.1173 76.3831 35.2024 75.4916 35.0226C74.6002 34.8428 73.7826 34.4062 73.1418 33.7678C72.5011 33.1294 72.0659 32.3178 71.8912 31.4354C71.7165 30.5529 71.81 29.639 72.16 28.809C72.51 27.979 73.1008 27.27 73.8579 26.7713C74.615 26.2727 75.5045 26.0068 76.4143 26.0071C77.0228 26.0053 77.6256 26.123 78.1876 26.3534C78.7496 26.5838 79.2597 26.9224 79.6883 27.3493C80.1168 27.7763 80.4552 28.2832 80.6838 28.8405C80.9124 29.3978 81.0267 29.9945 81.02 30.5959ZM73.1497 30.5959C73.1497 32.432 74.5008 34.1013 76.4143 34.1013C78.3279 34.1013 79.6773 32.432 79.6773 30.5959C79.6773 28.7597 78.3262 27.1054 76.4143 27.1054C74.5025 27.1054 73.1497 28.7747 73.1497 30.5959Z" fill="#D3D3D5"/>
<path d="M96.8147 32.7175H94.6309V35.0828H93.2798V26.1155H96.8147C98.5796 26.1272 100.007 27.5962 100.007 29.414C100.007 31.2318 98.5728 32.6991 96.8147 32.7175ZM98.664 29.419C98.6573 28.2105 97.828 27.2089 96.7843 27.2089H94.6309V31.6057H96.7843C97.8229 31.6057 98.6573 30.6142 98.6573 29.409" fill="#D3D3D5"/>
<path d="M2.90106 26.1155V32.2451C2.90106 33.6906 2.18496 35.1963 -0.0376477 35.1963C-2.26026 35.1963 -3 33.6906 -3 32.2451H-1.659C-1.659 32.7826 -1.61003 34.0963 -0.0376477 34.0963C1.53473 34.0963 1.54486 32.7826 1.54486 32.2451V26.1155H2.90106Z" fill="#D3D3D5"/>
</g>
<defs>
<clipPath id="clip0">
<rect width="103" height="44" fill="white"/>
</clipPath>
</defs>
</svg>
